<?xml version="1.0" standalone="no"?>
<!DOCTYPE svg PUBLIC "-//W3C//DTD SVG 20010904//EN"
 "http://www.w3.org/TR/2001/REC-SVG-20010904/DTD/svg10.dtd">
<svg version="1.0" xmlns="http://www.w3.org/2000/svg" viewBox="0 0 500 520"
 preserveAspectRatio="xMidYMid meet">
<metadata>
Created by potrace 1.15, written by Peter Selinger 2001-2017
</metadata>
<g transform="translate(27,475) scale(0.035,-0.035)"
fill="#000000" stroke="none">
<path d="M8525 12389 c-90 -9 -344 -55 -353 -64 -2 -2 3 -16 11 -32 30 -58 48
-153 48 -259 0 -116 -11 -187 -47 -318 -14 -48 -24 -90 -22 -91 2 -2 26 1 53
5 28 5 100 12 160 16 l110 7 54 76 c30 42 139 159 241 261 203 201 366 385
350 395 -18 11 -502 14 -605 4z"/>
<path d="M9254 12212 c-73 -70 -201 -194 -286 -277 -85 -82 -183 -186 -218
-230 l-63 -79 164 -17 c388 -39 668 -103 989 -226 296 -114 444 -205 663 -412
l70 -66 -5 95 c-6 116 -30 190 -105 325 -81 147 -147 242 -217 313 -78 81
-109 102 -286 197 -171 91 -241 141 -263 187 -9 18 -20 71 -26 116 -15 120
-31 149 -95 167 -57 16 -150 35 -175 35 -9 0 -75 -58 -147 -128z"/>
<path d="M8026 12303 c-33 -7 -62 -15 -64 -18 -2 -2 12 -64 31 -137 20 -73 41
-160 48 -193 l12 -60 21 45 c17 37 21 71 24 197 2 83 0 158 -4 166 -8 12 -17
12 -68 0z"/>
<path d="M7712 12228 c-36 -8 -41 -12 -37 -31 8 -39 24 -139 40 -251 8 -60 17
-111 19 -113 6 -6 33 79 50 157 8 36 18 107 22 158 l7 92 -29 -1 c-16 -1 -48
-5 -72 -11z"/>
<path d="M7385 12163 c-33 -8 -141 -34 -239 -59 -210 -51 -329 -103 -419 -184
-80 -72 -111 -127 -105 -188 7 -66 43 -136 99 -192 78 -78 66 -77 520 -39
l398 33 21 47 c47 111 49 215 6 334 -23 64 -93 175 -146 233 -33 36 -46 37
-135 15z"/>
<path d="M10176 12138 c5 -7 38 -58 74 -113 38 -58 80 -138 99 -190 48 -127
73 -166 181 -280 124 -129 152 -167 195 -257 70 -147 81 -290 35 -470 l-22
-88 66 -71 c37 -39 88 -98 112 -132 l45 -60 92 -1 c117 -1 172 -25 280 -124
90 -82 115 -92 300 -122 191 -32 239 -52 537 -224 116 -67 234 -119 303 -131
l37 -7 -26 73 c-15 41 -48 124 -73 184 l-46 110 -98 7 c-92 7 -217 34 -217 47
0 3 21 17 47 31 44 23 153 123 153 139 0 12 -161 271 -208 333 l-42 57 -67
-25 c-38 -13 -120 -50 -183 -81 -63 -32 -119 -59 -124 -61 -5 -3 23 56 61 129
39 74 82 166 96 205 l25 71 -107 107 c-102 102 -109 107 -122 89 -43 -60 -281
-245 -295 -230 -3 3 1 18 9 34 8 15 26 64 40 108 23 69 33 112 62 252 4 18
-12 34 -87 91 -74 55 -272 189 -335 225 -8 5 -26 -21 -53 -75 -38 -75 -102
-180 -106 -175 -1 1 -11 56 -23 122 -11 66 -27 152 -36 191 l-17 72 -146 70
c-140 67 -403 182 -417 182 -3 0 -3 -6 1 -12z"/>
<path d="M7906 11940 c-12 -105 -35 -230 -57 -304 -11 -37 -18 -70 -16 -72 2
-2 39 -1 81 3 56 4 79 10 84 21 6 16 -47 292 -71 372 l-14 45 -7 -65z"/>
<path d="M11175 10088 c36 -73 104 -236 153 -361 l88 -229 158 1 c88 1 182 7
210 13 69 14 161 57 219 101 26 20 47 34 47 31 0 -3 -41 -55 -90 -114 -120
-144 -278 -292 -383 -360 -80 -52 -86 -57 -86 -90 -1 -44 37 -361 43 -368 8
-7 150 84 230 148 128 102 233 214 341 365 51 71 57 76 50 45 -12 -57 -72
-199 -115 -271 -96 -162 -272 -361 -426 -482 l-61 -48 -6 -162 c-3 -89 -2
-166 2 -170 5 -5 28 -3 52 3 65 17 139 100 224 250 39 68 86 140 105 160 19
19 105 89 189 155 85 66 198 163 251 215 96 95 239 276 281 355 l22 42 -26
119 c-15 65 -38 156 -52 202 l-26 82 -37 0 c-58 0 -159 25 -262 65 -65 25
-154 47 -290 71 -443 80 -639 154 -802 304 l-68 61 65 -133z"/>
<path d="M12607 9042 c-132 -151 -241 -250 -303 -278 -31 -13 -76 -46 -102
-72 -50 -50 -68 -91 -97 -232 -32 -154 -92 -236 -267 -365 -54 -39 -163 -134
-243 -210 -170 -160 -175 -173 -90 -208 58 -24 163 -27 420 -13 179 9 291 -1
354 -34 84 -42 166 -171 197 -310 l17 -72 62 106 c84 143 92 174 74 290 -24
152 -16 263 49 741 12 88 16 205 17 438 1 174 1 317 0 317 -1 0 -41 -44 -88
-98z"/>
<path d="M1070 8976 c-49 -37 -60 -54 -60 -98 0 -42 7 -58 80 -188 39 -69 56
-116 91 -250 70 -275 88 -359 105 -497 10 -72 21 -130 24 -128 4 3 10 26 14
52 8 63 55 161 101 212 20 22 64 54 97 71 75 37 148 39 313 10 308 -56 356
-62 400 -56 47 8 60 21 23 23 -39 3 -72 38 -145 154 -39 63 -91 131 -115 153
-24 21 -90 61 -148 88 -244 115 -241 113 -390 259 -175 170 -231 211 -303 216
-44 4 -57 1 -87 -21z"/>
<path d="M4390 8573 c-8 -3 -103 -37 -210 -75 -225 -81 -250 -94 -303 -154
-44 -50 -143 -102 -251 -132 l-69 -18 62 -71 c72 -85 239 -221 371 -304 96
-61 464 -249 486 -249 8 0 15 23 20 58 4 31 20 111 36 177 20 85 32 166 39
280 5 88 16 220 24 294 16 152 16 152 -50 182 -38 18 -122 24 -155 12z"/>
<path d="M9245 8424 c-146 -22 -187 -23 -478 -21 -293 2 -320 1 -331 -15 -7
-10 -23 -66 -35 -125 -12 -61 -34 -134 -50 -168 -85 -171 -290 -338 -562 -456
-61 -26 -113 -50 -116 -53 -12 -12 143 -6 222 8 152 27 347 76 393 99 26 13
103 53 172 88 139 71 311 141 615 250 391 139 453 155 514 129 73 -30 86 -126
31 -237 -59 -119 -187 -225 -437 -362 -62 -34 -124 -76 -138 -93 -67 -80 -105
-202 -104 -338 l0 -85 26 70 c65 178 187 289 368 335 123 31 237 34 549 15
301 -20 311 -19 704 21 35 4 62 13 81 30 66 56 115 68 274 72 186 5 280 -8
472 -63 175 -51 215 -57 105 -16 -128 48 -195 93 -226 152 -39 76 -14 112 179
258 73 55 146 111 162 125 l30 25 -37 -6 c-63 -10 -134 14 -182 62 -39 38 -50
43 -122 54 -43 7 -153 32 -244 56 -331 89 -774 159 -1250 200 -242 21 -393 18
-585 -11z"/>
<path d="M8200 8359 c-52 -10 -153 -32 -225 -49 -71 -16 -231 -48 -355 -70
-347 -61 -451 -92 -566 -171 -77 -52 -159 -87 -294 -124 -74 -20 -156 -46
-182 -57 -57 -24 -51 20 -52 -408 l-1 -305 -32 -135 c-33 -144 -48 -237 -59
-365 -3 -44 -21 -222 -40 -395 -18 -173 -40 -408 -49 -523 -9 -114 -25 -251
-36 -305 -11 -53 -64 -230 -119 -392 -115 -343 -146 -464 -196 -765 -46 -284
-76 -395 -174 -666 -44 -122 -79 -223 -78 -225 2 -1 47 80 102 181 179 336
287 475 414 537 63 31 73 33 177 33 97 0 118 -4 173 -27 35 -15 90 -45 123
-68 32 -22 59 -37 59 -34 0 3 -36 79 -79 168 -44 88 -91 195 -105 237 -54 160
-54 357 0 517 35 105 69 152 126 176 65 27 111 12 178 -55 l50 -50 -21 53
c-50 123 -33 372 46 678 51 198 64 314 45 405 -6 33 -40 141 -73 240 -60 175
-62 183 -61 280 1 84 8 126 43 260 89 337 171 546 247 621 50 50 110 74 275
108 343 72 509 169 667 391 60 85 176 299 170 314 -2 4 -46 0 -98 -10z"/>
<path d="M2610 8180 c-41 -5 -102 -18 -135 -30 -33 -12 -82 -25 -108 -28 l-48
-7 -22 -66 c-39 -116 -102 -175 -217 -205 -55 -14 -86 -15 -195 -8 -71 5 -186
9 -255 9 -148 0 -174 -10 -269 -103 l-58 -57 14 -135 c17 -166 12 -248 -28
-415 -17 -71 -33 -166 -36 -211 l-6 -81 94 -17 c247 -45 563 -138 828 -246
l149 -60 55 20 c80 30 164 88 225 154 29 32 51 60 49 63 -2 2 -17 -1 -33 -8
-70 -27 -204 -49 -299 -49 -238 0 -440 93 -646 299 -124 124 -188 209 -168
222 8 5 17 9 21 9 17 0 69 66 106 132 82 148 112 158 497 148 129 -3 155 -1
188 15 63 30 130 148 156 276 10 47 9 74 -4 150 -17 96 -13 163 8 156 7 -2 31
-38 55 -81 23 -43 73 -123 111 -180 81 -120 122 -199 150 -287 23 -73 106
-482 117 -575 7 -70 -9 -164 -55 -319 -19 -62 -25 -93 -16 -84 24 24 140 257
214 428 87 200 127 268 286 486 185 253 236 374 220 516 -9 77 -30 155 -41
152 -5 -1 -27 -9 -49 -17 -57 -21 -114 -19 -261 8 -144 27 -459 40 -594 26z"/>
<path d="M9368 8031 c-42 -15 -150 -68 -240 -118 -89 -50 -192 -105 -227 -123
-115 -57 -291 -108 -552 -160 -140 -28 -337 -76 -439 -106 -102 -30 -215 -58
-251 -61 -62 -5 -71 -3 -122 26 -65 37 -75 38 -130 10 -141 -72 -248 -237
-377 -584 -81 -216 -79 -263 13 -410 108 -172 134 -265 124 -440 -6 -105 -17
-150 -112 -475 -66 -228 -77 -314 -50 -405 61 -210 250 -420 445 -494 48 -18
86 -24 145 -25 l80 -1 110 62 c61 34 132 72 159 84 49 21 51 22 153 5 180 -30
239 -57 468 -216 173 -121 240 -160 337 -199 150 -59 299 -74 397 -40 l34 12
-6 61 c-18 193 -90 251 -412 331 -193 49 -266 80 -344 151 -49 44 -101 127
-101 161 0 25 62 81 117 106 32 14 112 37 178 51 66 14 148 34 181 43 88 24
120 12 229 -88 73 -67 147 -119 169 -119 2 0 -21 26 -53 58 -76 76 -113 144
-162 298 -95 302 -133 354 -258 354 -78 0 -149 -33 -331 -155 -217 -145 -380
-214 -545 -231 -72 -7 -163 13 -237 53 -108 59 -258 247 -294 369 -21 73 -31
208 -23 313 24 296 171 512 419 617 154 64 209 79 295 78 94 0 130 -11 352
-106 182 -77 325 -118 418 -118 34 0 108 6 166 14 57 8 176 17 264 21 88 4
187 13 220 20 63 14 161 52 154 60 -3 2 -50 -2 -104 -10 -197 -28 -293 -16
-460 57 -49 22 -136 58 -193 81 -122 48 -170 86 -211 169 -38 75 -42 157 -11
247 42 125 81 172 200 243 146 88 176 114 267 236 48 65 125 157 170 206 79
83 99 117 71 115 -7 0 -47 -13 -90 -28z"/>
<path d="M3665 7932 c42 -103 47 -131 49 -252 l1 -125 125 3 c144 4 244 -9
315 -42 63 -29 115 -72 115 -96 0 -28 -146 -242 -233 -341 -138 -158 -296
-270 -487 -346 -200 -79 -359 -92 -475 -39 -30 14 -55 21 -55 17 0 -15 55 -89
85 -114 17 -14 50 -35 74 -48 l43 -22 147 76 c329 171 669 283 1036 343 88 14
170 28 182 30 15 3 54 46 111 122 181 239 193 251 281 287 78 31 201 103 201
118 0 10 -44 12 -490 12 l-405 0 -71 31 c-146 65 -364 215 -487 336 -38 37
-66 59 -62 50z"/>
<path d="M6245 7744 c-22 -7 -77 -23 -123 -35 -45 -12 -97 -31 -115 -43 l-32
-22 -1 -144 c0 -164 -11 -204 -96 -375 -57 -114 -95 -209 -108 -272 -9 -41 -7
-67 11 -154 38 -182 16 -334 -82 -570 -64 -155 -116 -304 -168 -482 -23 -75
-84 -241 -136 -368 -93 -227 -215 -564 -197 -544 23 25 175 229 220 296 67
100 109 187 196 402 41 100 110 256 154 347 119 248 179 419 256 740 58 236
87 413 101 615 15 215 32 286 117 493 28 67 49 124 47 125 -2 2 -22 -3 -44 -9z"/>
<path d="M5830 7528 c-59 -53 -107 -76 -192 -94 -76 -16 -179 -8 -275 21 -27
8 -53 15 -60 15 -27 0 -183 -142 -226 -207 -52 -79 -147 -290 -147 -328 0 -18
-19 -44 -68 -93 -37 -37 -82 -86 -100 -108 l-32 -41 63 -7 c266 -28 287 -35
287 -100 0 -64 -40 -76 -192 -57 -40 6 -108 13 -150 16 l-77 7 -21 -41 c-15
-31 -17 -42 -8 -45 7 -2 49 -11 93 -21 151 -33 336 -108 349 -140 12 -32 6
-62 -17 -83 -31 -30 -44 -28 -157 17 -86 35 -212 69 -308 85 -32 5 -32 5 -82
-94 -28 -55 -50 -102 -50 -105 0 -3 7 -5 16 -5 65 0 544 -139 577 -168 26 -23
23 -87 -5 -106 -32 -23 -42 -21 -201 28 -125 39 -396 109 -452 118 -13 2 -44
-16 -80 -46 -39 -31 -128 -82 -251 -142 -247 -120 -272 -142 -438 -393 -140
-212 -195 -272 -466 -513 -228 -203 -244 -220 -235 -249 4 -13 41 -102 82
-198 81 -190 177 -387 300 -612 44 -81 83 -158 87 -173 3 -14 11 -26 16 -26
15 0 86 94 132 174 117 204 153 243 405 434 87 66 187 146 223 177 36 31 95
76 132 100 117 76 183 158 333 410 97 163 136 218 277 386 145 174 190 234
258 348 129 217 178 334 205 486 13 76 37 149 100 305 122 300 146 354 213
474 89 159 202 521 190 610 -3 24 -4 23 -48 -16z"/>
<path d="M3990 7503 c-98 -15 -237 -49 -298 -73 -95 -37 -282 -163 -384 -258
-103 -97 -161 -174 -221 -291 -39 -77 -46 -96 -34 -102 26 -15 201 -39 282
-39 225 1 372 85 460 264 47 96 68 198 62 307 l-4 86 61 22 c33 12 79 38 100
57 40 35 38 37 -24 27z m-156 -145 c10 -39 6 -130 -9 -202 -29 -139 -103 -258
-199 -321 -47 -31 -106 -54 -106 -42 0 3 8 40 17 83 12 53 17 125 18 221 l0
141 55 33 c82 50 193 108 206 109 7 0 14 -10 18 -22z m-395 -278 c17 -66 31
-176 31 -246 l0 -61 -37 -7 c-89 -14 -342 9 -367 34 -10 10 167 190 274 278
41 33 78 58 81 54 3 -4 11 -27 18 -52z"/>
<path d="M1823 7445 c4 -9 7 -27 7 -39 0 -21 9 -25 85 -41 l85 -18 0 -93 c0
-248 90 -381 291 -429 90 -21 218 -19 308 5 42 11 107 20 148 20 55 0 73 3 73
14 0 7 -16 45 -35 83 -44 88 -155 197 -271 266 -107 64 -295 139 -479 191
-208 60 -220 62 -212 41z m382 -162 c39 -14 78 -27 88 -30 22 -7 22 -12 -8
-70 -31 -61 -51 -139 -60 -236 l-7 -77 -40 23 c-98 54 -147 154 -155 314 -8
136 -7 136 59 117 29 -9 85 -27 123 -41z m243 -107 c104 -53 259 -188 305
-265 l17 -30 -47 -6 c-27 -3 -88 -15 -137 -27 -70 -17 -108 -20 -185 -15 -53
3 -108 10 -123 15 l-26 11 52 103 c29 57 61 133 72 171 10 37 20 67 22 67 1 0
24 -11 50 -24z"/>
<path d="M11040 7403 c-19 -2 -138 -22 -263 -44 -388 -67 -467 -69 -709 -13
-145 33 -337 54 -493 54 -225 0 -328 -28 -422 -113 -96 -88 -125 -185 -82
-273 47 -97 128 -123 249 -79 131 47 148 50 183 32 18 -8 57 -36 86 -62 64
-55 87 -65 144 -65 23 0 88 -13 145 -29 272 -78 356 -70 952 89 223 60 372 83
530 84 155 0 210 -12 291 -67 118 -79 125 -250 20 -462 -63 -128 -129 -215
-253 -337 -92 -91 -97 -98 -71 -98 15 0 39 -9 53 -20 38 -30 71 -24 182 33 94
48 109 60 188 148 53 61 124 126 190 175 194 145 326 298 391 452 37 90 73
280 66 354 -9 99 -65 148 -187 163 -33 4 -88 22 -135 46 l-80 39 -105 -16
c-134 -20 -287 -20 -420 0 -96 14 -352 20 -450 9z"/>
<path d="M6336 7249 c-34 -145 -72 -359 -86 -490 -14 -126 -46 -227 -169 -521
-127 -308 -152 -378 -230 -645 -87 -298 -102 -338 -157 -415 -64 -92 -84 -132
-183 -380 -112 -280 -146 -394 -155 -520 -5 -64 -26 -173 -61 -315 -29 -120
-65 -282 -79 -360 -30 -164 -75 -466 -70 -472 1 -2 43 3 91 10 107 15 304 16
355 2 42 -13 41 -15 53 102 10 100 54 349 95 544 29 141 40 217 44 316 5 145
11 168 111 475 75 230 82 267 95 465 7 123 15 170 43 265 19 63 50 169 69 235
20 66 49 174 66 240 17 66 46 170 65 230 55 173 117 703 117 1004 0 75 5 181
10 235 5 55 8 101 6 103 -2 3 -16 -46 -30 -108z"/>
<path d="M12650 7234 c-84 -96 -125 -190 -140 -324 -24 -212 -122 -381 -321
-557 -60 -53 -108 -98 -106 -99 2 -2 29 5 59 16 55 19 57 19 110 1 127 -44
162 -77 221 -212 46 -106 61 -169 61 -274 1 -94 -1 -105 -31 -166 -18 -36 -64
-117 -101 -180 -168 -280 -198 -342 -228 -475 -20 -90 -15 -246 11 -352 18
-76 66 -177 102 -214 l27 -28 42 168 c52 205 79 283 182 532 113 274 129 339
211 855 44 276 54 394 48 530 -6 113 -35 389 -57 542 -5 37 -10 103 -10 145 0
66 -3 81 -23 104 l-23 26 -34 -38z"/>
<path d="M4740 6943 c-392 -42 -675 -105 -986 -219 -154 -57 -420 -188 -564
-278 -144 -91 -144 -90 -131 -115 11 -19 15 -18 109 43 438 287 975 466 1552
517 132 11 155 18 155 40 0 15 -62 20 -135 12z"/>
<path d="M466 6841 c-20 -32 12 -38 237 -44 589 -16 1198 -172 1750 -449 62
-31 82 -37 93 -27 8 6 14 16 14 21 0 5 -57 36 -127 70 -472 223 -922 355
-1403 413 -182 22 -554 32 -564 16z"/>
<path d="M4298 6780 c-224 -47 -378 -95 -640 -199 -53 -21 -27 -18 52 4 122
36 319 73 493 93 l159 19 56 56 c67 67 70 67 -120 27z"/>
<path d="M8119 6691 c-75 -29 -138 -80 -188 -149 -25 -35 -66 -91 -91 -124
-134 -176 -162 -218 -180 -266 -27 -72 -26 -127 6 -191 45 -90 106 -114 324
-131 198 -14 374 8 614 77 95 27 146 36 236 40 110 5 118 4 166 -20 102 -52
208 -185 244 -307 11 -36 34 -137 51 -225 34 -178 55 -240 100 -309 40 -60
100 -101 202 -136 45 -16 114 -40 152 -54 115 -42 187 -30 221 37 9 17 47 64
84 102 85 88 99 117 107 213 6 86 -5 127 -55 190 -54 69 -62 94 -62 201 0 181
43 334 110 395 91 82 189 109 405 110 119 1 160 -4 270 -28 103 -22 144 -27
197 -22 142 13 266 82 353 199 90 119 147 275 131 360 -6 31 -11 37 -32 37
-14 0 -35 -5 -46 -11 -40 -22 -519 -168 -630 -193 -63 -14 -159 -31 -215 -37
-101 -11 -104 -10 -245 25 -174 43 -604 106 -725 106 -191 0 -441 -43 -542
-94 -156 -79 -216 -82 -376 -18 -165 66 -408 183 -443 213 -38 34 -75 37 -143
10z"/>
<path d="M2713 6656 c-36 -72 -88 -122 -175 -166 l-79 -39 50 -26 c28 -14 57
-25 64 -25 23 0 97 64 128 109 19 30 29 60 34 106 9 85 4 95 -22 41z"/>
<path d="M1335 6626 c14 -31 25 -65 25 -75 0 -30 19 -38 131 -55 237 -35 591
-45 537 -15 -63 35 -551 177 -670 194 l-48 7 25 -56z"/>
<path d="M4291 6640 c-373 -31 -725 -126 -1108 -297 -75 -34 -103 -51 -103
-64 0 -10 4 -20 9 -23 4 -3 62 19 127 48 467 211 913 305 1384 293 113 -3 246
-11 295 -18 129 -17 130 -17 133 9 2 12 0 22 -5 22 -4 0 -55 7 -113 15 -131
18 -480 27 -619 15z"/>
<path d="M4345 6524 c-35 -21 -51 -23 -140 -22 -55 0 -111 -4 -125 -10 -18 -7
16 -9 125 -5 149 5 150 6 180 34 36 35 16 37 -40 3z"/>
<path d="M3992 6425 c-170 -19 -374 -58 -587 -110 -258 -63 -312 -81 -320
-106 -4 -11 -5 -23 -2 -25 3 -3 51 8 108 25 234 68 496 124 754 163 58 8 183
13 350 13 244 -1 268 -2 383 -27 67 -15 168 -45 224 -68 101 -40 128 -44 128
-17 0 30 -225 112 -395 143 -124 23 -479 28 -643 9z"/>
<path d="M1458 6410 c-228 -14 -454 -55 -701 -126 -197 -57 -517 -182 -517
-202 0 -33 31 -27 170 29 434 176 802 252 1220 252 285 0 529 -34 786 -109 89
-25 104 -25 104 5 0 13 -28 24 -137 54 -304 81 -629 115 -925 97z"/>
<path d="M5517 6384 c-4 -4 -7 -17 -7 -28 0 -32 -55 -238 -95 -361 -97 -289
-155 -417 -353 -768 -55 -97 -130 -248 -167 -335 -37 -86 -120 -276 -185 -422
-287 -647 -320 -771 -350 -1310 -15 -264 -45 -457 -116 -734 -5 -23 -4 -27 7
-21 247 149 524 381 704 592 l62 73 7 107 c28 433 47 588 97 793 45 181 78
273 188 522 97 220 165 401 158 422 -4 12 -38 -35 -196 -264 -55 -80 -123
-171 -151 -203 -51 -56 -140 -126 -140 -110 0 24 94 355 135 478 65 192 108
299 241 593 159 350 195 470 211 697 8 120 -25 304 -50 279z"/>
<path d="M2635 6350 c-27 -11 -61 -49 -74 -83 -25 -65 -7 -122 53 -175 68 -59
193 -57 315 4 84 44 121 86 121 141 0 129 -136 165 -243 65 l-27 -26 -16 22
c-26 38 -95 66 -129 52z"/>
<path d="M3935 6320 c-77 -11 -207 -33 -290 -50 -82 -16 -154 -31 -160 -31
-30 -5 115 -17 205 -18 58 -1 170 -8 250 -15 165 -16 146 -23 232 77 l50 57
-74 -1 c-40 0 -136 -9 -213 -19z"/>
<path d="M1775 6299 c-54 -17 -208 -22 -294 -10 -46 7 -85 10 -88 7 -3 -3 -2
-35 2 -72 l7 -66 31 5 c18 2 111 19 208 35 97 17 213 34 258 38 71 6 84 10 91
28 4 12 5 24 1 27 -11 12 -185 18 -216 8z"/>
<path d="M2120 6260 c0 -5 17 -10 38 -10 27 0 33 3 22 10 -20 13 -60 13 -60 0z"/>
<path d="M2050 6199 c-232 -12 -467 -50 -745 -121 -329 -83 -955 -309 -955
-344 0 -30 32 -24 154 25 699 285 1322 419 1834 396 85 -3 160 -9 168 -12 21
-8 18 34 -3 45 -26 13 -296 20 -453 11z"/>
<path d="M3201 6168 c-120 -8 -135 -11 -151 -31 -10 -12 -17 -23 -15 -25 2 -2
88 2 191 9 555 35 1186 -46 1683 -216 82 -28 106 -31 117 -14 12 19 -19 36
-136 72 -557 173 -1127 243 -1689 205z"/>
<path d="M2400 6114 c-411 -63 -863 -228 -1280 -467 -237 -135 -730 -476 -730
-504 0 -35 37 -19 162 72 580 423 1082 676 1584 796 139 33 342 69 392 69 36
0 40 9 14 33 -21 20 -17 20 -142 1z"/>
<path d="M12050 6079 c-52 -22 -187 -84 -300 -139 -113 -54 -230 -107 -260
-117 -76 -25 -326 -25 -420 0 -97 26 -305 132 -367 189 -47 42 -58 48 -98 48
-61 0 -132 -37 -184 -96 -80 -91 -74 -142 49 -379 90 -173 92 -180 88 -235 -5
-73 -46 -131 -161 -229 -205 -174 -303 -306 -328 -445 -14 -79 -2 -125 69
-256 57 -105 57 -105 62 -211 6 -99 8 -109 44 -167 70 -115 174 -198 306 -242
49 -17 77 -20 116 -15 106 13 235 96 318 204 74 96 191 299 242 421 87 207
130 251 280 281 114 23 159 47 231 121 90 92 277 353 356 496 156 282 199 405
200 582 1 118 -11 169 -50 212 -25 28 -87 21 -193 -23z"/>
<path d="M2065 6100 c-3 -6 1 -7 9 -4 18 7 21 14 7 14 -6 0 -13 -4 -16 -10z"/>
<path d="M1765 6074 c-123 -19 -312 -56 -324 -63 -9 -6 1 -57 23 -118 3 -7 48
7 128 41 69 28 172 67 231 86 74 24 107 40 111 52 3 15 -2 18 -37 17 -23 -1
-82 -7 -132 -15z"/>
<path d="M3352 6042 c-18 -22 -48 -51 -68 -62 -33 -21 -38 -21 -122 -9 -106
15 -316 16 -473 0 -97 -9 -130 -9 -195 4 -107 20 -119 19 -156 -14 l-33 -29 0
-184 c0 -231 1 -235 63 -243 84 -12 116 -27 169 -82 51 -52 121 -180 238 -438
34 -76 37 -79 51 -60 9 11 60 108 114 215 55 107 113 212 130 232 22 26 68 57
151 99 66 33 152 84 192 113 90 64 422 343 497 417 l54 54 -44 7 c-25 4 -155
10 -290 14 l-246 7 -32 -41z m-902 -178 c82 -29 158 -30 245 -3 l68 21 61 -28
c90 -42 186 -44 291 -9 44 14 91 33 103 41 50 32 33 1 -34 -64 -110 -108 -230
-154 -344 -131 -30 6 -91 12 -135 13 -149 6 -256 55 -324 150 -28 39 -31 48
-16 41 11 -4 49 -19 85 -31z"/>
<path d="M2115 5957 l-80 -22 -30 -85 c-39 -108 -48 -124 -104 -189 -60 -70
-101 -123 -101 -132 0 -11 100 -47 168 -60 59 -11 158 -8 196 7 14 5 16 14 11
49 -4 25 0 78 10 131 9 49 23 130 31 179 8 50 17 102 20 118 5 23 3 27 -18 26
-13 0 -59 -10 -103 -22z"/>
<path d="M1735 5835 c-60 -23 -129 -52 -153 -62 l-43 -20 48 -53 c46 -51 117
-110 133 -110 14 0 72 100 111 191 22 49 39 91 39 94 0 10 -29 2 -135 -40z"/>
<path d="M9113 5012 c56 -72 208 -244 298 -337 82 -84 101 -125 135 -287 14
-67 35 -146 45 -174 41 -110 210 -337 335 -451 47 -42 116 -116 155 -164 95
-119 136 -153 274 -228 126 -69 241 -154 305 -229 48 -56 108 -176 146 -292
15 -47 35 -97 45 -111 10 -15 54 -45 97 -67 89 -47 109 -64 174 -147 25 -33
60 -68 77 -78 l31 -18 0 58 c0 71 -23 169 -51 225 -26 51 -92 123 -177 191
-99 80 -115 116 -124 267 -4 69 -10 177 -14 240 -7 115 -7 116 29 220 20 57
36 105 34 106 -1 1 -29 -18 -62 -43 -91 -69 -135 -86 -243 -91 -89 -4 -96 -3
-159 28 -72 36 -184 135 -262 234 -27 34 -85 120 -131 191 -45 72 -114 171
-154 220 -40 50 -107 135 -148 190 -87 114 -122 150 -229 228 -42 30 -109 85
-150 122 -84 76 -304 255 -314 255 -3 0 14 -26 38 -58z"/>
<path d="M4708 4898 c-65 -71 -117 -153 -221 -353 -135 -259 -171 -311 -316
-455 -188 -187 -394 -346 -642 -495 -96 -58 -133 -88 -213 -172 l-97 -102 204
-403 c206 -408 280 -570 344 -755 l35 -102 57 28 c93 48 138 87 167 143 15 29
35 65 45 79 10 14 16 28 14 31 -3 2 2 76 10 164 8 87 15 220 15 294 0 148 14
362 31 480 14 95 96 384 153 538 70 186 221 532 316 722 48 96 99 207 112 245
28 76 44 155 33 155 -4 0 -25 -19 -47 -42z"/>
<path d="M6785 4931 c-52 -22 -62 -53 -86 -266 -21 -191 22 -387 132 -607 80
-159 214 -352 327 -470 l36 -38 166 0 c111 0 184 5 225 15 70 17 292 31 635
40 l245 6 120 -30 c66 -17 143 -31 172 -31 51 0 53 1 73 39 40 79 136 129 218
115 20 -3 72 -17 115 -30 104 -32 151 -32 173 1 21 31 13 53 -42 117 -110 127
-119 228 -39 391 19 39 35 72 35 72 0 1 -24 -4 -52 -12 -85 -23 -289 -28 -378
-9 -141 30 -206 77 -387 282 l-72 81 -118 34 c-105 29 -132 33 -248 33 l-130
1 -83 -43 c-107 -55 -175 -72 -292 -72 -235 0 -300 30 -501 226 -162 159 -190
177 -244 155z"/>
<path d="M11999 4865 c-46 -63 -68 -106 -119 -236 -98 -245 -146 -308 -408
-532 -90 -77 -186 -166 -213 -199 -92 -110 -140 -231 -199 -501 -26 -116 -31
-153 -22 -171 14 -31 148 -83 235 -92 91 -9 221 11 273 41 96 56 181 190 249
390 20 61 86 206 145 323 141 277 154 324 154 582 0 171 -1 190 -23 244 -13
32 -26 90 -30 129 l-6 72 -36 -50z"/>
<path d="M9350 4620 c0 -3 14 -48 31 -100 57 -180 50 -278 -28 -401 -52 -81
-62 -131 -44 -221 21 -98 63 -154 171 -225 52 -35 107 -77 122 -95 54 -63 96
-248 83 -370 -13 -140 -47 -215 -163 -371 -90 -120 -105 -155 -106 -247 -1
-78 23 -134 84 -198 81 -84 110 -96 232 -101 131 -4 181 11 242 73 57 58 94
133 167 345 66 194 98 254 162 305 33 26 48 31 93 31 30 0 54 4 54 8 0 43 -86
125 -217 206 -342 212 -363 232 -472 455 -43 89 -100 192 -125 228 -58 82 -91
162 -145 347 -45 156 -90 272 -121 311 -11 14 -20 23 -20 20z"/>
<path d="M12192 4176 c-74 -110 -107 -188 -122 -282 -8 -54 -30 -107 -95 -239
-46 -93 -103 -224 -126 -290 -53 -154 -99 -242 -160 -304 -69 -70 -145 -105
-239 -109 -91 -4 -160 18 -257 85 -73 49 -73 46 -13 -57 56 -96 130 -174 198
-207 51 -25 68 -28 157 -28 91 0 104 2 147 28 52 30 90 74 125 145 l22 47 -7
-95 c-4 -52 -7 -156 -7 -230 1 -115 4 -145 24 -200 41 -117 89 -203 177 -320
141 -187 182 -292 202 -525 9 -109 26 -161 80 -243 15 -23 15 -22 53 48 26 48
39 84 39 110 0 21 30 125 69 237 l69 199 -33 115 c-59 205 -88 259 -256 484
-99 133 -143 235 -191 441 -49 215 -53 317 -20 456 25 100 74 232 124 333 19
39 51 108 71 155 33 80 36 93 39 213 2 70 1 127 -2 127 -3 0 -33 -42 -68 -94z"/>
<path d="M6391 3924 c-149 -40 -285 -159 -443 -389 -141 -206 -191 -301 -213
-404 -7 -32 -5 -31 60 38 80 84 174 157 265 205 79 41 271 103 360 115 93 12
230 -8 302 -45 23 -12 27 -11 32 2 11 30 90 54 212 64 66 5 122 10 127 10 15
0 5 24 -39 93 -90 139 -162 206 -290 270 -110 55 -259 72 -373 41z"/>
<path d="M12246 3638 c-15 -43 -69 -242 -89 -328 -8 -37 -6 -75 13 -190 39
-252 88 -368 221 -521 44 -50 91 -110 105 -134 27 -46 48 -138 59 -251 12
-132 15 -128 101 194 18 68 36 154 40 191 8 87 3 98 -156 356 -68 110 -138
232 -157 272 -39 84 -76 219 -97 352 -9 52 -17 96 -20 98 -2 2 -11 -15 -20
-39z"/>
<path d="M9017 3547 c4 -7 30 -43 59 -82 180 -245 284 -447 284 -552 0 -19 -9
-51 -19 -71 -11 -21 -22 -60 -26 -87 -7 -43 -15 -57 -60 -100 -29 -27 -69 -76
-90 -108 -39 -61 -91 -110 -192 -185 l-63 -46 0 -56 c0 -98 -39 -201 -106
-281 -63 -75 -93 -171 -61 -197 10 -9 25 -3 62 23 27 19 53 35 57 35 5 0 57
28 116 63 143 85 186 100 264 95 61 -4 147 -37 220 -85 27 -17 28 -17 60 14
18 18 59 43 90 57 31 14 112 66 179 116 110 82 118 91 83 83 -21 -4 -97 -8
-169 -8 -125 0 -133 1 -195 31 -228 109 -280 310 -139 539 100 164 123 370 59
520 -38 89 -187 221 -297 263 -64 25 -126 35 -116 19z"/>
<path d="M6300 3376 c-176 -38 -357 -145 -518 -309 l-74 -74 109 -181 c59
-100 111 -182 114 -182 3 0 28 14 55 32 88 57 224 204 312 337 45 68 82 121
82 118 0 -19 -69 -187 -111 -271 -61 -122 -124 -212 -206 -294 l-63 -63 30
-58 c41 -83 134 -304 160 -381 12 -38 21 -92 22 -129 l0 -64 97 6 c121 8 434
45 484 58 20 5 44 20 53 34 14 22 14 27 -4 67 -10 24 -47 85 -81 137 -34 51
-63 103 -66 115 -3 11 -16 73 -31 136 -30 134 -28 172 16 288 55 144 91 291
100 411 l9 114 -32 68 c-31 67 -33 68 -82 79 -79 18 -300 22 -375 6z"/>
<path d="M2983 3075 c-65 -69 -119 -129 -121 -134 -4 -11 71 -42 218 -89 226
-72 305 -112 383 -196 20 -23 37 -36 37 -30 0 22 -107 221 -159 296 -58 85
-220 278 -232 278 -4 0 -61 -56 -126 -125z"/>
<path d="M10500 3131 c0 -102 -14 -126 -136 -246 -124 -122 -107 -90 -173
-330 -15 -51 -40 -107 -70 -155 -48 -75 -77 -140 -62 -140 4 0 79 41 166 91
88 50 201 111 250 136 124 62 200 118 235 171 17 25 30 50 30 56 0 6 6 23 14
37 12 24 10 33 -24 107 -50 105 -114 204 -178 272 l-51 55 -1 -54z"/>
<path d="M6851 2958 c-14 -82 -14 -161 0 -247 10 -62 9 -75 -15 -159 -38 -133
-35 -166 23 -292 96 -203 108 -399 32 -489 -17 -20 -65 -81 -107 -136 -92
-121 -148 -180 -183 -195 -15 -6 -71 -21 -126 -34 -55 -13 -140 -38 -190 -56
-80 -29 -98 -32 -165 -27 -187 13 -321 125 -361 303 -7 30 -15 54 -19 54 -18
0 -103 -87 -122 -124 -25 -49 -28 -128 -5 -172 35 -68 127 -126 222 -139 28
-3 90 -25 138 -47 113 -51 189 -62 392 -54 180 6 270 23 359 64 121 57 310
233 360 334 38 78 49 155 43 303 -6 158 -21 237 -97 515 -35 130 -65 265 -75
340 -14 113 -63 291 -84 313 -5 5 -14 -20 -20 -55z"/>
<path d="M2787 2720 c-27 -5 -51 -10 -53 -13 -2 -2 9 -16 26 -32 22 -21 71
-41 217 -85 394 -120 484 -175 553 -335 25 -58 50 -197 50 -277 0 -71 -1 -71
98 -1 37 26 68 47 69 48 6 3 -63 181 -101 260 -53 111 -109 185 -184 248 -68
57 -202 125 -328 167 -80 26 -105 30 -195 29 -57 -1 -126 -5 -152 -9z"/>
<path d="M11310 2678 c38 -117 47 -235 25 -338 -5 -19 13 -55 74 -154 146
-234 158 -332 75 -578 l-33 -98 32 -17 c42 -23 171 -22 287 1 47 9 116 17 154
17 60 0 79 -5 142 -36 45 -22 87 -52 110 -78 l36 -42 -6 53 c-11 89 -54 244
-86 308 -22 45 -68 101 -170 208 -148 155 -165 179 -201 296 -22 67 -24 93
-23 252 l0 176 -40 -27 c-118 -80 -215 -66 -333 51 l-61 61 18 -55z"/>
<path d="M2413 2520 c-51 -54 -148 -149 -217 -211 -68 -62 -122 -117 -120
-121 3 -4 35 -8 72 -8 68 0 80 4 357 104 73 26 116 36 160 36 147 0 376 -101
630 -280 98 -69 199 -130 214 -130 17 0 13 33 -10 103 -31 92 -84 172 -174
264 -122 124 -233 173 -530 233 -145 29 -211 52 -263 89 l-27 19 -92 -98z"/>
<path d="M8774 2222 c-36 -25 -59 -52 -82 -96 -52 -100 -128 -193 -287 -352
-164 -164 -225 -250 -225 -316 0 -123 131 -87 580 158 196 107 229 117 380
119 118 2 128 4 185 33 33 17 69 37 79 45 19 14 18 15 -15 25 -214 68 -371 30
-637 -151 -127 -87 -191 -115 -230 -101 -38 13 -39 45 -4 86 54 62 94 129 166
276 39 81 88 177 109 214 52 91 46 106 -19 60z"/>
<path d="M2500 2153 c-101 -10 -303 -72 -333 -102 -4 -4 59 -11 140 -14 102
-4 173 -12 227 -26 238 -63 398 -215 480 -458 l22 -66 80 71 c53 48 109 86
169 116 50 25 101 56 113 69 l23 24 -58 23 c-107 43 -170 79 -341 193 -186
126 -247 154 -367 168 -80 9 -89 9 -155 2z"/>
<path d="M8548 2095 c-3 -3 -107 -50 -232 -104 -258 -113 -341 -159 -425 -237
-88 -81 -99 -111 -107 -281 -7 -133 -6 -143 15 -176 12 -19 45 -50 74 -68 29
-19 77 -53 107 -76 79 -60 162 -85 280 -86 204 0 351 79 556 297 82 87 175
175 239 224 l30 23 -56 -5 c-90 -9 -178 -41 -270 -99 -47 -30 -108 -62 -135
-72 -31 -12 -74 -43 -120 -86 -96 -90 -201 -142 -282 -142 -68 1 -126 27 -166
73 -34 41 -40 67 -34 148 11 149 143 331 393 545 160 136 150 127 144 127 -3
0 -8 -2 -11 -5z"/>
<path d="M1804 1947 c-49 -55 -115 -122 -147 -150 -31 -28 -56 -52 -54 -53 2
-2 31 6 66 16 165 52 401 47 573 -10 95 -32 160 -63 308 -145 52 -30 119 -61
149 -69 58 -17 171 -22 171 -7 0 13 -79 83 -145 127 -147 99 -240 140 -451
199 -151 43 -254 89 -327 149 l-53 43 -90 -100z"/>
<path d="M6669 1810 c-20 -5 -81 -27 -136 -49 -189 -77 -437 -84 -538 -16 -33
23 -36 24 -84 9 -27 -8 -58 -22 -69 -32 l-21 -17 20 -52 c26 -68 86 -127 151
-149 69 -23 186 -14 298 21 98 32 150 58 238 119 34 25 99 59 145 76 124 46
171 70 160 81 -13 13 -122 20 -164 9z"/>
<path d="M7500 1745 c-42 -19 -77 -51 -96 -87 -23 -45 -19 -51 30 -45 55 8
152 -7 237 -37 l67 -23 4 42 c3 23 13 57 22 75 9 18 14 35 12 37 -2 2 -29 13
-61 24 -80 28 -171 34 -215 14z"/>
<path d="M5349 1716 c-79 -28 -155 -94 -202 -175 l-18 -31 61 39 c104 67 191
74 313 26 l58 -23 15 30 c8 16 31 47 50 68 19 21 31 41 27 43 -5 3 -36 12 -70
21 -73 19 -184 20 -234 2z"/>
<path d="M1776 1660 c-27 -5 -74 -19 -104 -31 l-56 -23 119 -23 c99 -19 140
-22 235 -17 105 5 122 4 196 -20 91 -29 185 -85 228 -137 40 -47 76 -128 83
-188 3 -28 9 -51 12 -51 4 0 22 11 42 24 19 13 78 48 132 78 l97 55 -42 19
c-24 10 -101 54 -171 96 -71 42 -146 82 -166 89 -20 6 -84 31 -143 55 -59 24
-138 50 -175 58 -92 19 -227 26 -287 16z"/>
<path d="M1155 1499 c-32 -5 -74 -14 -92 -20 -29 -9 -32 -14 -27 -37 21 -92
75 -152 161 -178 62 -19 105 -13 244 37 61 22 154 46 210 54 114 17 331 20
410 5 100 -19 197 -80 252 -160 l17 -25 -6 35 c-10 58 -58 132 -110 173 -76
58 -132 70 -293 63 -543 -24 -610 -20 -662 35 -15 16 -31 28 -36 28 -4 -1 -35
-5 -68 -10z"/>
<path d="M7028 1386 c-32 -35 -58 -66 -58 -70 0 -3 10 -6 23 -6 12 0 45 -11
73 -24 81 -38 129 -115 143 -230 l7 -61 17 54 c39 127 11 236 -87 336 l-61 64
-57 -63z"/>
<path d="M754 1322 c-161 -106 -248 -219 -248 -322 0 -48 5 -62 41 -116 83
-121 170 -188 243 -188 20 0 71 18 120 41 124 60 139 61 261 19 95 -33 116
-36 244 -40 77 -2 191 -8 253 -12 l113 -7 72 70 c39 38 85 78 100 88 l29 19
-35 17 c-74 38 -188 79 -268 95 -124 25 -198 16 -377 -46 -243 -83 -304 -80
-407 23 -80 81 -100 123 -99 212 0 53 6 86 27 135 14 35 25 65 23 67 -2 2 -43
-23 -92 -55z"/>
<path d="M11500 1372 c0 -19 153 -65 293 -88 83 -14 175 -34 203 -44 65 -22
153 -80 193 -126 17 -19 34 -34 39 -34 13 0 54 98 50 118 -4 25 -198 118 -293
142 -44 11 -123 24 -175 30 -114 12 -310 13 -310 2z"/>
<path d="M11375 1340 c-4 -11 -17 -33 -31 -49 -14 -17 -31 -54 -39 -84 -8 -30
-37 -103 -65 -163 -78 -165 -79 -256 -3 -285 39 -15 81 4 186 81 176 130 305
176 463 166 50 -4 117 -13 149 -21 32 -9 60 -14 62 -11 10 9 -50 88 -88 116
-50 36 -110 46 -181 30 -29 -6 -82 -18 -118 -26 -36 -7 -81 -11 -99 -7 -51 9
-119 82 -171 185 -25 49 -48 88 -52 88 -4 0 -10 -9 -13 -20z"/>
<path d="M5485 1315 c-158 -77 -211 -168 -174 -300 13 -44 11 -46 45 50 26 73
114 158 184 179 30 9 67 16 83 16 l28 0 -38 45 c-21 24 -42 44 -48 45 -5 0
-41 -16 -80 -35z"/>
<path d="M7661 1275 c-54 -57 -94 -131 -117 -218 -26 -97 -19 -106 30 -39 50
68 134 132 206 158 l49 18 -36 34 c-19 20 -42 50 -49 69 -8 18 -18 33 -23 33
-4 0 -31 -25 -60 -55z"/>
<path d="M8762 1242 l-63 -58 26 -24 c14 -13 39 -52 56 -86 33 -66 41 -142 26
-241 -5 -33 -4 -53 2 -53 5 0 34 23 65 50 104 96 111 174 27 338 -75 146 -65
140 -139 74z"/>
<path d="M350 1201 c-113 -35 -222 -139 -287 -272 -66 -135 -65 -143 8 -73 35
33 84 72 109 87 61 35 162 60 222 55 l47 -5 11 52 c6 29 23 72 38 96 16 24 31
50 36 57 5 9 -12 12 -76 11 -46 0 -94 -4 -108 -8z"/>
<path d="M1625 1200 c-55 -4 -136 -18 -180 -31 -106 -31 -346 -35 -410 -6
l-40 17 35 -29 c19 -16 60 -45 90 -63 51 -31 60 -33 166 -37 63 -2 193 5 296
15 323 32 359 25 455 -80 l50 -54 91 51 c50 29 92 55 92 58 0 17 -105 112
-142 128 -92 39 -248 49 -503 31z"/>
<path d="M5766 1136 c-46 -97 -55 -189 -24 -251 13 -25 69 -85 80 -85 4 0 8
31 8 68 0 96 24 168 70 214 28 29 46 38 71 38 33 1 33 1 14 16 -37 29 -106 54
-150 54 -43 0 -44 -1 -69 -54z"/>
<path d="M11045 1074 c-209 -110 -263 -153 -307 -241 -31 -64 -33 -74 -33
-173 0 -101 1 -108 34 -168 86 -158 277 -242 521 -229 103 6 340 49 450 83 69
21 160 66 183 91 9 11 29 48 43 84 14 35 31 70 37 78 9 11 -8 13 -108 9 -105
-4 -134 -9 -235 -42 -63 -21 -189 -70 -280 -109 -119 -51 -180 -72 -221 -75
-52 -4 -57 -2 -82 28 -45 53 -59 124 -61 309 -1 204 7 228 113 316 65 54 117
112 109 120 -2 2 -75 -34 -163 -81z"/>
<path d="M6161 1073 c-25 -48 -32 -105 -20 -156 9 -40 23 -62 68 -106 l56 -56
5 105 c7 115 27 170 76 209 l27 21 -101 0 c-86 0 -103 -3 -111 -17z"/>
<path d="M8460 1049 c-14 -6 -46 -15 -72 -20 l-48 -11 16 -31 c32 -60 26 -202
-11 -299 -23 -60 95 53 133 126 21 42 27 68 30 149 5 105 4 106 -48 86z"/>
<path d="M11710 841 c-124 -36 -218 -76 -341 -147 -188 -107 -221 -109 -307
-16 -36 40 -41 43 -32 19 30 -84 81 -141 141 -157 60 -16 137 10 281 96 224
136 409 165 546 89 25 -14 46 -24 47 -23 2 2 14 27 29 55 l26 52 -25 17 c-80
53 -217 58 -365 15z"/>
<path d="M450 758 c-75 -114 -104 -188 -105 -268 0 -52 5 -73 24 -104 27 -44
35 -38 44 37 14 105 96 221 185 261 l41 19 -62 68 c-34 38 -64 69 -67 69 -4 0
-30 -37 -60 -82z"/>
<path d="M10620 819 c-116 -41 -208 -125 -271 -251 -16 -31 -29 -60 -29 -63 0
-3 20 10 45 29 60 46 143 76 221 79 l64 2 0 49 c0 26 7 75 16 108 8 33 14 62
12 63 -2 2 -28 -5 -58 -16z"/>
<path d="M1891 736 l-54 -55 29 -7 c85 -20 143 -72 179 -159 l23 -58 7 46 c8
50 -6 131 -31 178 -16 32 -82 109 -93 109 -4 0 -31 -24 -60 -54z"/>
<path d="M910 686 c-92 -43 -95 -46 -108 -88 -28 -90 5 -225 70 -285 l23 -22
2 84 c1 59 9 105 28 161 24 71 38 100 83 172 8 12 10 22 6 22 -5 0 -52 -20
-104 -44z"/>
<path d="M1145 680 c-13 -59 12 -162 56 -226 31 -45 118 -110 104 -78 -43 101
-58 209 -35 268 9 23 6 26 -43 42 -29 9 -57 19 -64 21 -6 3 -14 -9 -18 -27z"/>
<path d="M11990 524 c-11 -25 -20 -49 -20 -53 0 -3 -11 -23 -25 -44 l-26 -37
26 0 c53 0 145 -69 199 -150 l16 -24 0 39 c0 54 -25 166 -45 205 -19 37 -83
110 -97 110 -5 0 -18 -21 -28 -46z"/>
<path d="M10630 454 c-60 -28 -105 -65 -125 -104 -18 -36 -27 -97 -20 -131 l7
-30 38 43 c46 53 129 95 203 104 l55 7 -41 52 c-23 28 -46 59 -52 68 -9 16
-15 15 -65 -9z"/>
<path d="M11706 296 l-88 -29 30 -23 c41 -33 97 -119 118 -183 14 -44 19 -50
27 -36 18 32 37 119 37 170 0 52 -15 122 -28 127 -4 2 -47 -10 -96 -26z"/>
</g>
</svg>
