<?xml version="1.0" standalone="no"?>
<!DOCTYPE svg PUBLIC "-//W3C//DTD SVG 20010904//EN"
 "http://www.w3.org/TR/2001/REC-SVG-20010904/DTD/svg10.dtd">
<svg version="1.0" xmlns="http://www.w3.org/2000/svg" viewBox="0 0 500 520" preserveAspectRatio="xMidYMid meet">
<metadata>
Created by potrace 1.15, written by Peter Selinger 2001-2017
</metadata>
<g transform="translate(123,475) scale(0.035,-0.035)"
fill="#000000" stroke="none">
<path d="M2529 12555 c-338 -53 -659 -221 -964 -505 -472 -439 -797 -1102
-845 -1727 -10 -128 -9 -183 6 -380 l6 -73 59 0 c32 0 59 -3 59 -6 0 -3 -18
-73 -40 -154 -22 -81 -40 -151 -40 -154 0 -3 152 -6 339 -6 l338 0 57 -126
c196 -434 282 -749 295 -1083 l6 -164 680 -399 680 -398 7 162 c29 675 135
1191 327 1594 120 250 215 345 377 375 75 15 227 16 425 5 l155 -8 17 253 c22
321 22 534 1 637 -24 119 -72 212 -146 285 -96 95 -211 149 -397 186 -84 17
-108 28 -315 146 l-225 128 -123 159 c-175 225 -218 317 -218 469 0 61 29 212
39 206 115 -64 248 -102 332 -93 117 12 154 33 358 205 l111 93 -28 51 c-15
28 -57 81 -93 118 -53 53 -87 77 -160 112 -113 54 -177 70 -284 70 -129 0
-259 -49 -391 -146 -150 -111 -196 -219 -174 -410 20 -171 64 -283 236 -593
53 -96 118 -223 144 -282 87 -194 83 -162 89 -742 l6 -515 60 0 60 0 6 125 c4
69 10 219 14 333 l7 208 50 25 c89 45 175 141 237 262 l21 42 61 0 60 0 -63
-122 c-70 -137 -122 -197 -212 -248 l-56 -32 0 -365 0 -366 -302 8 c-167 4
-306 9 -310 12 -5 2 -8 116 -8 252 l0 248 -212 6 c-333 10 -505 44 -693 137
-136 67 -250 156 -414 322 l-139 139 -49 -24 c-127 -65 -229 -170 -299 -310
-69 -137 -124 -346 -124 -473 l0 -54 -50 0 -50 0 0 98 c0 354 85 557 292 699
85 58 294 183 307 183 5 0 28 -26 52 -57 94 -126 243 -256 387 -337 237 -134
654 -217 991 -199 l101 6 2 -259 3 -259 78 -3 78 -3 -3 538 c-4 633 17 531
-175 886 -257 474 -278 535 -270 787 6 215 29 268 158 372 35 28 86 69 113 92
l50 41 -50 7 c-83 11 -324 7 -415 -7z m1094 -217 l68 -73 -77 -19 -78 -19 -44
23 c-51 28 -86 70 -100 123 l-10 37 86 0 87 0 68 -72z"/>
<path d="M3460 12355 c0 -3 9 -24 20 -45 17 -32 26 -40 49 -40 15 0 36 9 46
20 18 20 18 21 -5 45 -18 19 -34 25 -67 25 -24 0 -43 -2 -43 -5z"/>
<path d="M3852 12043 c-72 -59 -130 -108 -129 -110 2 -1 93 -27 203 -57 694
-190 1160 -407 1600 -742 47 -36 85 -61 83 -56 -11 28 -185 225 -278 314 -188
178 -390 315 -701 477 -191 99 -605 281 -639 281 -5 0 -67 -48 -139 -107z"/>
<path d="M5685 10320 c-70 -111 -114 -251 -144 -465 -55 -379 -42 -711 36
-928 52 -148 160 -321 314 -502 150 -179 249 -313 280 -381 45 -99 62 -207 57
-358 -5 -126 -7 -137 -57 -288 -29 -86 -58 -162 -65 -167 -6 -5 -76 -20 -154
-33 -128 -20 -142 -25 -142 -43 0 -30 -30 -70 -83 -111 -47 -37 -97 -119 -81
-134 5 -4 97 -12 204 -18 107 -6 204 -14 215 -17 15 -5 27 -30 48 -94 32 -100
98 -210 179 -298 92 -100 150 -196 174 -288 12 -46 11 -56 -11 -127 -72 -227
-107 -421 -107 -598 -1 -146 12 -193 88 -318 59 -97 111 -165 213 -276 95
-104 98 -116 82 -259 -12 -110 -20 -146 -74 -339 -22 -77 -40 -173 -48 -245
-19 -195 -1 -241 183 -479 119 -154 173 -241 200 -326 28 -88 20 -246 -21
-431 -47 -211 -55 -330 -32 -468 50 -292 291 -1237 411 -1612 49 -152 142
-389 171 -432 l20 -30 -6 155 c-27 670 -47 901 -110 1232 -41 218 -68 314
-135 487 -74 192 -93 300 -87 496 4 148 7 169 42 285 46 154 59 328 32 421
-23 78 -92 192 -217 364 -140 191 -160 231 -160 309 1 87 22 195 64 320 55
166 69 249 64 384 -6 180 -42 250 -268 525 l-121 148 11 77 c6 42 33 169 60
282 27 113 56 249 65 302 l15 97 -30 76 c-39 98 -65 149 -194 380 -58 104
-106 192 -106 195 0 3 14 7 30 8 82 6 285 108 302 151 18 45 -15 148 -63 197
l-40 41 -77 -22 c-42 -11 -90 -30 -105 -40 l-28 -18 3 43 3 44 125 35 c69 19
126 35 126 36 1 0 5 10 8 23 7 22 6 22 -76 22 -46 0 -116 -5 -157 -10 -41 -6
-75 -9 -77 -7 -1 1 9 63 24 137 22 117 25 163 26 345 1 186 -2 220 -22 300
-12 49 -38 121 -57 160 -41 84 -157 240 -289 390 -54 61 -109 129 -123 153
-51 87 -73 223 -94 597 -13 235 -34 374 -85 545 -55 188 -63 220 -83 337 l-18
108 -28 -45z"/>
<path d="M765 9458 c-7 -18 -29 -68 -49 -111 -25 -55 -32 -79 -23 -83 7 -2
156 -3 332 -2 l320 3 37 105 c20 58 37 108 37 113 1 4 -143 7 -320 7 l-320 0
-14 -32z"/>
<path d="M3840 9340 l0 -100 310 0 310 0 0 84 c0 46 3 91 6 100 6 14 -26 16
-310 16 l-316 0 0 -100z"/>
<path d="M656 9158 c-108 -166 -225 -1077 -230 -1783 -1 -212 0 -222 22 -263
18 -33 35 -49 70 -64 42 -19 58 -20 191 -14 81 4 149 10 153 14 10 11 103 582
149 917 22 165 49 347 60 405 43 226 127 519 213 743 l26 67 -320 0 -320 0
-14 -22z"/>
<path d="M3836 8893 c-3 -137 -11 -405 -16 -597 -10 -372 -8 -409 35 -482 94
-161 514 -426 995 -629 142 -60 550 -200 610 -210 34 -5 40 0 155 110 116 111
119 115 100 131 -43 34 -187 99 -497 224 -340 137 -579 248 -654 302 -69 50
-82 78 -101 229 -19 144 -23 642 -8 997 l7 172 -309 0 -310 0 -7 -247z"/>
<path d="M1736 8235 c-20 -124 -92 -308 -224 -570 -129 -259 -198 -432 -236
-599 -9 -36 -38 -249 -66 -473 -149 -1210 -199 -1475 -409 -2175 -222 -741
-467 -1942 -536 -2627 -15 -155 -19 -479 -6 -581 l7 -55 26 51 c121 231 489
1992 644 3074 30 212 48 288 114 495 134 420 199 786 220 1237 22 486 65 897
114 1090 13 53 78 233 144 400 66 167 136 353 155 415 38 120 71 291 65 339
-3 24 -5 20 -12 -21z"/>
<path d="M1796 8008 c-28 -129 -89 -303 -161 -458 -87 -190 -129 -306 -164
-449 -45 -181 -101 -651 -156 -1286 -29 -335 -65 -691 -95 -925 -11 -85 -20
-158 -20 -162 0 -5 587 -8 1305 -8 1238 0 1305 1 1305 18 0 30 -69 416 -115
647 -79 394 -175 791 -290 1200 -60 212 -180 603 -200 651 -11 27 -107 88
-696 440 -375 225 -685 410 -688 412 -4 1 -14 -35 -25 -80z"/>
<path d="M450 6870 l0 -100 208 2 207 3 0 95 0 95 -207 3 -208 2 0 -100z"/>
<path d="M516 6711 c-58 -6 -59 -7 -73 -45 -16 -48 -1 -153 53 -364 70 -277
152 -422 237 -422 18 0 52 -9 76 -20 48 -22 101 -26 101 -8 0 6 -16 68 -35
138 -46 167 -87 370 -80 397 3 12 26 39 51 59 45 37 47 38 61 19 34 -44 55
-111 69 -216 20 -153 31 -193 65 -225 16 -15 31 -25 33 -23 3 3 -2 25 -11 49
-11 33 -16 93 -19 225 -2 148 -6 192 -23 246 -27 85 -83 151 -149 174 -52 19
-251 28 -356 16z"/>
<path d="M1166 4543 c-10 -115 -49 -295 -106 -498 -135 -475 -132 -437 -128
-1390 3 -867 3 -870 -62 -1305 -40 -271 -60 -502 -63 -725 -2 -204 4 -238 56
-293 90 -97 343 -118 682 -55 139 26 169 27 415 28 241 0 289 -3 533 -34 l268
-33 87 27 c67 21 95 36 125 65 35 36 38 43 35 87 -3 47 -4 47 -48 60 -25 8
-106 27 -180 44 -579 132 -838 213 -1108 346 -129 64 -209 129 -243 200 -21
43 -22 53 -16 227 9 287 58 687 148 1231 129 777 322 1516 508 1955 17 40 31
87 31 106 l0 34 -464 0 -463 0 -7 -77z"/>
<path d="M2740 4533 c33 -49 78 -113 100 -143 56 -80 142 -290 185 -456 38
-147 54 -253 70 -484 40 -555 120 -880 332 -1355 263 -586 321 -727 407 -988
95 -286 131 -493 124 -722 l-3 -120 50 -17 c45 -16 122 -17 828 -18 700 0 782
2 813 16 67 32 118 120 94 163 -7 13 -62 29 -227 65 -351 76 -519 129 -704
222 -128 64 -201 115 -286 200 -81 81 -99 111 -141 245 -110 342 -349 1453
-466 2159 -94 568 -103 675 -66 811 49 176 49 285 -1 444 l-20 65 -575 0 -575
0 61 -87z"/>
</g>
</svg>
