<?xml version="1.0" standalone="no"?>
<!DOCTYPE svg PUBLIC "-//W3C//DTD SVG 20010904//EN"
 "http://www.w3.org/TR/2001/REC-SVG-20010904/DTD/svg10.dtd">
<svg version="1.0" xmlns="http://www.w3.org/2000/svg"
 width="1280.000000pt" height="818.000000pt" viewBox="0 0 1280.000000 818.000000"
 preserveAspectRatio="xMidYMid meet">
<metadata>
Created by potrace 1.15, written by Peter Selinger 2001-2017
</metadata>
<g transform="translate(0.000000,818.000000) scale(0.100000,-0.100000)"
fill="#000000" stroke="none">
<path d="M3140 8174 c-223 -29 -449 -115 -606 -232 -281 -209 -479 -582 -461
-870 5 -83 32 -192 47 -192 4 0 13 21 20 48 41 164 147 279 462 505 183 130
254 194 323 292 42 59 55 69 138 110 131 64 197 79 347 79 240 0 435 -77 591
-233 190 -191 269 -461 204 -706 -63 -239 -269 -482 -508 -600 -138 -68 -193
-79 -387 -79 -218 -1 -359 23 -758 125 -307 78 -352 84 -607 84 -243 0 -340
-11 -550 -60 -270 -63 -568 -203 -791 -371 -276 -208 -504 -516 -576 -780 -31
-115 -31 -334 0 -458 71 -283 276 -534 551 -675 156 -80 355 -139 698 -207 17
-3 24 -14 29 -42 22 -126 141 -661 174 -782 75 -277 115 -386 220 -610 109
-229 120 -301 66 -409 -46 -90 -134 -148 -331 -217 -103 -36 -150 -82 -185
-179 -21 -58 -25 -88 -25 -175 0 -122 4 -132 134 -335 43 -66 119 -190 170
-275 89 -150 168 -254 409 -539 113 -134 235 -238 364 -314 121 -71 153 -81
231 -72 34 4 148 8 254 9 105 1 194 3 196 6 9 9 -12 114 -34 167 -21 52 -21
52 -1 73 12 13 29 20 43 18 26 -3 39 -28 15 -28 -18 0 -21 -15 -6 -25 6 -3 10
-17 10 -29 0 -13 10 -36 22 -51 12 -16 27 -49 34 -74 l11 -46 62 -3 c38 -2 68
2 77 9 23 19 17 88 -15 156 -31 65 -29 74 14 87 25 7 56 -10 38 -22 -8 -5 -9
-13 -3 -22 6 -8 10 -27 10 -42 0 -36 36 -130 62 -163 19 -24 26 -27 67 -22 59
7 82 33 74 85 -14 95 -79 179 -175 228 -71 36 -300 110 -368 119 -30 4 -100 8
-155 9 -92 1 -107 4 -166 33 -120 59 -225 174 -399 438 -113 170 -170 307
-170 405 0 119 62 202 210 280 193 102 377 246 610 480 208 208 380 437 555
740 75 130 276 534 295 595 24 76 78 171 118 207 48 44 99 61 267 89 124 21
140 22 350 11 257 -14 411 -31 625 -72 85 -16 229 -40 320 -55 91 -14 271 -50
400 -80 129 -30 276 -61 325 -70 248 -45 922 -21 1325 46 225 38 541 124 578
159 28 26 28 69 1 104 -12 15 -64 48 -116 74 -84 41 -194 124 -182 136 3 3 56
-20 118 -51 112 -56 114 -57 204 -58 l92 0 6 -85 c7 -105 28 -149 104 -219 90
-81 251 -151 425 -181 36 -7 141 -13 235 -15 l170 -3 70 -48 c121 -81 293
-151 502 -204 185 -46 426 -92 556 -106 77 -8 146 -18 155 -23 10 -5 55 -41
102 -81 190 -159 443 -307 625 -363 44 -14 126 -35 182 -48 85 -19 107 -21
140 -11 54 16 112 78 120 128 7 51 25 64 89 64 61 0 97 13 137 49 24 22 27 32
27 84 0 48 -5 64 -25 88 -27 33 -26 41 17 108 33 52 35 76 10 114 -26 39 -75
74 -157 112 -88 41 -100 54 -100 121 -1 66 -25 96 -99 121 -43 14 -85 16 -256
15 -187 -2 -213 -5 -294 -28 -134 -40 -169 -34 -351 56 -127 63 -162 86 -228
147 -65 61 -101 84 -210 138 -73 35 -179 80 -237 100 -142 49 -615 185 -667
192 -69 9 -74 25 -38 123 13 35 17 84 17 230 1 170 -1 193 -25 285 -31 119
-106 275 -175 365 -171 226 -491 414 -765 450 -65 9 -109 8 -216 -4 -74 -9
-136 -14 -139 -11 -12 12 78 37 174 47 90 10 121 10 225 -6 295 -43 545 -174
731 -384 76 -86 112 -147 163 -283 20 -52 40 -98 45 -103 16 -16 22 62 11 129
-25 139 -122 384 -215 543 -94 159 -238 331 -410 491 -141 131 -324 227 -606
319 -186 60 -279 76 -465 76 -157 1 -262 -12 -330 -39 -16 -7 -59 -16 -95 -20
-89 -10 -142 -35 -214 -103 -42 -39 -101 -78 -182 -120 -65 -34 -207 -114
-314 -177 -570 -336 -1176 -589 -1680 -699 -326 -72 -488 -86 -1100 -96 -591
-10 -736 -20 -980 -71 -367 -77 -689 -222 -957 -430 -70 -55 -115 -70 -293
-99 -154 -25 -337 -27 -424 -4 -106 27 -213 90 -297 173 -110 110 -154 210
-166 383 -29 425 342 901 845 1082 195 70 389 98 687 99 193 1 225 -1 395 -30
102 -18 230 -37 285 -43 55 -6 177 -25 270 -43 154 -29 187 -32 355 -31 166 0
195 3 282 27 127 34 254 86 352 145 91 54 234 185 307 281 65 85 162 284 190
386 30 115 37 298 14 400 -75 341 -371 658 -735 790 -128 46 -234 65 -385 69
-77 2 -156 2 -175 0z m3119 -4068 c11 -33 21 -68 21 -80 0 -20 0 -20 -20 0
-11 10 -30 46 -42 79 -27 73 -32 222 -8 270 14 29 15 24 21 -90 4 -84 13 -138
28 -179z m-326 97 c3 -54 15 -129 26 -168 25 -84 28 -144 7 -126 -33 28 -70
135 -74 219 -4 78 11 172 28 172 4 0 10 -44 13 -97z m-353 -45 c0 -61 7 -149
16 -196 8 -46 14 -86 11 -88 -2 -2 -19 28 -37 68 -43 92 -52 196 -25 282 10
30 22 53 26 50 5 -3 9 -55 9 -116z m3089 -250 c59 -125 130 -173 346 -234 78
-22 179 -61 268 -104 187 -90 280 -121 472 -159 134 -27 218 -54 203 -65 -1
-1 -51 1 -110 5 -179 13 -376 68 -593 166 -66 30 -181 75 -255 101 -75 26
-162 63 -194 82 -116 70 -195 169 -196 246 0 27 6 44 16 44 2 0 21 -37 43 -82z
m-5660 -283 c51 -46 75 -105 107 -261 19 -97 25 -149 22 -207 -6 -102 -25
-131 -92 -135 l-47 -3 8 48 c4 26 7 95 7 153 -2 132 -28 250 -88 391 -7 16 16
49 35 49 5 0 26 -16 48 -35z m-1115 -484 c10 -11 42 -84 72 -163 30 -79 69
-167 87 -196 85 -142 204 -250 306 -278 147 -40 177 -63 146 -110 -15 -24 -19
-25 -88 -19 -171 15 -258 58 -354 175 -30 36 -74 104 -98 153 -69 137 -148
400 -132 440 9 23 40 21 61 -2z"/>
<path d="M9490 7689 c-216 -23 -398 -62 -625 -136 -484 -158 -958 -410 -1330
-709 -160 -128 -525 -477 -513 -490 3 -2 71 7 152 21 376 64 795 -2 1148 -181
164 -84 281 -167 393 -280 145 -146 255 -314 410 -628 43 -86 81 -159 86 -161
4 -3 15 19 25 47 25 78 114 262 179 375 110 187 227 346 384 521 61 66 295
285 366 340 40 32 36 71 -15 137 -144 187 -156 483 -25 618 82 85 256 102 387
40 129 -61 304 -259 323 -365 12 -62 17 -63 182 -24 81 19 202 42 268 51 66 9
121 18 122 19 2 1 -13 34 -32 72 -106 211 -326 407 -610 544 -296 144 -583
201 -985 199 -113 -1 -243 -6 -290 -10z m115 -159 c3 -6 3 -20 0 -31 -6 -18
-12 -20 -54 -14 -35 5 -77 -1 -157 -20 -60 -14 -118 -28 -128 -30 -24 -5 -46
11 -46 35 0 13 14 20 58 30 164 34 316 48 327 30z m689 -45 c47 -14 96 -25
109 -25 25 0 67 -26 67 -41 0 -15 -52 -11 -183 15 -129 26 -154 33 -174 49
-45 34 64 36 181 2z m-1544 -170 c0 -15 -7 -28 -17 -32 -10 -3 -61 -25 -114
-48 -127 -57 -154 -62 -169 -35 -10 19 -6 23 42 45 228 103 258 112 258 70z
m1254 5 c14 -5 26 -14 26 -19 0 -32 -310 -43 -330 -11 -24 37 -14 40 134 40
80 0 156 -4 170 -10z m-772 -95 c16 -35 -2 -51 -65 -59 -28 -4 -85 -21 -125
-37 -78 -31 -112 -35 -143 -19 -29 16 -25 55 9 68 92 35 225 68 285 71 20 1
30 -6 39 -24z m1791 -82 c81 -74 104 -100 94 -110 -12 -11 -113 55 -176 114
-50 48 -63 65 -52 71 23 16 49 2 134 -75z m-1353 -76 l0 -34 -127 -27 c-71
-14 -144 -26 -164 -26 -44 0 -57 22 -35 55 16 25 27 27 181 45 49 6 91 13 94
16 2 2 15 4 28 4 19 0 23 -5 23 -33z m-1162 -99 c28 -28 11 -46 -116 -122 -71
-42 -135 -76 -143 -76 -9 0 -21 11 -27 25 -13 29 -18 25 138 119 110 67 128
74 148 54z m-464 -14 c22 -22 13 -34 -79 -96 -44 -30 -101 -69 -127 -88 -49
-35 -78 -35 -78 -1 0 21 52 63 156 129 28 18 59 41 69 52 22 24 38 25 59 4z
m914 -66 c-4 -32 -250 -158 -276 -142 -21 14 -22 44 -2 55 80 41 240 109 258
109 19 0 23 -5 20 -22z m944 -5 c27 -24 22 -33 -19 -33 -21 0 -56 -5 -78 -11
-66 -17 -70 -16 -70 10 0 22 7 27 50 37 71 17 96 16 117 -3z m-531 -104 c14
-27 9 -32 -81 -64 -41 -15 -99 -36 -128 -47 -42 -15 -57 -16 -68 -7 -20 17
-17 37 8 50 21 11 235 87 250 88 4 1 12 -8 19 -20z m399 -167 c0 -37 -1 -38
-37 -40 -21 -2 -75 -14 -119 -27 -45 -14 -89 -25 -98 -25 -24 0 -49 61 -32 78
14 14 180 49 244 51 l42 1 0 -38z m-1430 -67 c19 -23 1 -54 -53 -89 -29 -19
-61 -43 -71 -55 -24 -26 -38 -27 -62 0 -19 21 -19 21 26 58 25 20 58 51 74 69
32 34 66 41 86 17z m418 -17 c7 -7 12 -24 12 -39 0 -22 -11 -33 -67 -67 -121
-73 -193 -93 -193 -52 0 20 120 116 190 152 41 21 43 21 58 6z m414 -92 c14
-21 8 -26 -83 -72 -136 -68 -136 -68 -155 -38 -22 32 -17 37 100 97 75 39 92
45 110 35 11 -6 24 -16 28 -22z m758 -26 c0 -4 3 -15 6 -24 5 -13 -1 -16 -30
-16 -20 0 -52 -6 -70 -14 -46 -19 -108 -28 -124 -17 -8 4 -12 19 -10 31 3 21
14 26 98 45 90 20 130 19 130 -5z m-441 -112 c5 -13 5 -27 1 -32 -10 -10 -208
-86 -225 -86 -19 0 -50 39 -39 49 5 5 33 16 63 26 30 10 79 28 110 41 70 29
80 29 90 2z m-475 -214 c23 -22 8 -44 -71 -104 l-66 -50 -29 27 c-27 26 -27
27 -10 46 37 42 115 97 137 97 13 0 31 -7 39 -16z m456 -58 c8 -10 8 -20 2
-32 -11 -20 -211 -113 -229 -107 -18 7 -26 37 -11 46 7 4 49 29 93 56 83 51
124 61 145 37z m-152 -348 c23 -23 11 -48 -45 -93 -63 -49 -98 -64 -115 -47
-17 17 0 42 65 100 59 54 75 60 95 40z"/>
<path d="M10256 7165 c-50 -18 -99 -66 -121 -118 -9 -23 -23 -56 -31 -74 -10
-25 -11 -50 -4 -117 12 -102 38 -174 85 -238 61 -83 110 -98 134 -40 11 25 8
35 -24 87 -82 137 -74 232 27 305 38 28 48 31 88 25 89 -13 152 -55 202 -134
23 -37 28 -56 28 -109 0 -59 1 -63 16 -51 9 8 33 19 53 24 l36 11 -1 64 c0 50
-7 78 -29 123 -39 78 -128 174 -206 220 -59 34 -69 37 -139 37 -41 -1 -92 -7
-114 -15z"/>
<path d="M10380 6948 c-69 -19 -108 -83 -95 -157 15 -93 81 -140 193 -141 55
0 66 3 87 26 21 22 25 37 25 86 0 93 -40 156 -117 184 -44 15 -47 15 -93 2z"/>
<path d="M11273 6783 c-13 -2 -23 -5 -23 -6 0 -1 14 -42 30 -91 17 -48 40
-136 52 -194 19 -95 20 -117 10 -206 -6 -55 -9 -103 -6 -107 8 -13 97 -39 136
-39 36 0 40 3 55 38 13 30 15 65 10 192 -6 207 -35 339 -85 393 -23 24 -32 27
-91 26 -36 -1 -76 -4 -88 -6z"/>
<path d="M11025 6761 c-33 -10 -79 -28 -102 -40 -23 -11 -55 -21 -70 -21 -15
0 -50 -13 -78 -28 -70 -38 -70 -56 3 -135 71 -76 75 -84 137 -254 50 -138 54
-143 116 -143 46 0 49 14 33 155 -20 178 -47 287 -84 344 -35 56 -37 71 -10
71 30 0 69 -70 113 -205 33 -99 40 -138 44 -226 l5 -107 30 -6 c118 -23 133
-2 133 184 -1 108 -5 150 -23 213 -30 106 -66 174 -105 197 -39 24 -63 24
-142 1z"/>
<path d="M10502 6552 c-40 -20 -71 -41 -69 -47 2 -5 21 -22 41 -36 69 -46 233
-238 272 -317 32 -65 39 -73 62 -70 62 7 84 98 47 195 -35 95 -153 260 -209
294 -42 26 -60 24 -144 -19z"/>
<path d="M10264 6416 c-52 -24 -134 -94 -134 -115 0 -6 19 -20 43 -30 155 -70
250 -118 362 -186 137 -82 145 -83 159 -23 4 18 -3 43 -24 83 -45 86 -80 125
-191 214 -113 91 -129 96 -215 57z"/>
<path d="M9964 6158 c-82 -84 -103 -116 -83 -129 7 -4 51 -11 98 -14 81 -7
154 -18 316 -49 39 -8 88 -24 110 -35 49 -26 86 -27 116 -2 35 29 22 43 -122
139 -153 101 -258 154 -318 159 -46 5 -46 4 -117 -69z"/>
<path d="M11105 6080 c-327 -45 -622 -219 -820 -482 -223 -296 -314 -662 -275
-1108 26 -292 81 -414 213 -470 63 -27 109 -24 195 15 75 34 112 73 112 120 0
35 -2 37 -100 108 -37 27 -56 54 -115 170 l-70 137 1 83 c0 66 5 93 26 139 35
75 98 141 166 175 74 36 214 44 313 18 35 -9 77 -19 93 -22 49 -8 75 -21 190
-93 147 -92 158 -102 219 -195 31 -47 66 -87 86 -99 71 -41 162 -17 249 67 58
56 76 119 76 257 -1 129 -24 227 -101 429 -31 80 -58 161 -60 181 -3 20 3 72
13 116 22 96 22 192 1 301 -19 97 -30 117 -77 140 -40 20 -232 27 -335 13z
m48 -219 l22 -22 -21 -17 c-11 -9 -27 -32 -34 -49 -20 -53 -47 -40 -90 45 -31
63 -22 76 46 70 39 -3 61 -11 77 -27z m107 -262 c-12 -21 -13 -20 -51 17 l-40
39 33 7 c18 3 40 17 48 29 15 23 15 22 18 -24 2 -25 -2 -56 -8 -68z m-412
-162 c41 -22 42 -42 1 -33 -137 27 -302 27 -372 0 -25 -9 -21 3 6 18 72 39
300 49 365 15z m-82 -188 c63 -11 154 -46 154 -59 0 -4 -33 -1 -72 7 -117 22
-263 27 -340 11 -88 -19 -75 3 15 26 105 27 160 30 243 15z"/>
<path d="M9797 5949 c-20 -12 -167 -186 -167 -198 0 -13 151 -22 212 -12 105
18 242 23 303 12 33 -6 76 -13 96 -17 33 -6 41 -1 108 56 39 34 70 67 68 73
-8 24 -417 97 -537 97 -36 0 -73 -5 -83 -11z"/>
<path d="M9850 5684 c-205 -37 -259 -48 -281 -60 -34 -17 -149 -188 -136 -201
3 -2 52 7 109 21 174 43 272 56 427 56 115 0 151 3 168 15 34 24 105 148 90
156 -14 9 -341 20 -377 13z"/>
<path d="M9829 5440 c-121 -14 -291 -61 -379 -105 -63 -32 -96 -68 -116 -128
-9 -28 -28 -73 -41 -98 -43 -87 -27 -96 68 -38 128 79 286 131 499 165 85 13
160 24 166 24 17 0 66 117 59 140 -4 11 -15 25 -26 31 -28 15 -140 19 -230 9z"/>
<path d="M11610 5405 c0 -8 9 -38 19 -67 42 -117 92 -286 101 -341 5 -32 12
-104 15 -160 9 -158 10 -160 73 -229 100 -108 236 -182 373 -203 62 -9 116 13
124 52 11 50 14 53 41 53 14 0 62 -9 107 -21 113 -29 178 -23 220 20 28 27 32
38 32 85 0 46 -5 60 -32 93 l-32 40 61 29 c77 37 92 59 84 119 -9 58 -45 100
-115 133 -59 29 -58 26 -45 103 26 155 -317 272 -623 214 -132 -25 -156 -22
-282 40 -62 30 -114 55 -117 55 -2 0 -4 -7 -4 -15z"/>
<path d="M9890 5183 c-60 -6 -232 -45 -300 -68 -102 -35 -282 -134 -342 -189
-21 -19 -23 -68 -7 -177 l12 -76 61 48 c123 100 309 177 487 204 109 16 139
26 158 49 16 19 36 185 24 196 -12 11 -53 17 -93 13z"/>
<path d="M10827 4924 c-4 -4 -7 -18 -7 -30 0 -16 -10 -29 -29 -39 -34 -17 -50
-53 -30 -67 8 -5 40 -7 72 -5 31 2 57 1 57 -2 0 -3 -9 -21 -20 -39 -39 -64
-19 -79 82 -62 110 17 113 11 33 -65 -30 -29 -55 -59 -55 -67 1 -53 63 -59
168 -18 82 33 87 38 82 85 -8 80 -165 245 -272 286 -34 13 -66 25 -69 27 -3 1
-8 -1 -12 -4z"/>
<path d="M9795 4869 c-94 -13 -197 -44 -275 -85 -89 -47 -217 -141 -253 -186
-28 -35 -30 -43 -32 -138 -2 -58 -8 -106 -14 -114 -16 -19 4 -96 24 -96 8 0
29 19 45 43 41 56 144 161 200 202 25 18 111 69 190 113 246 134 238 129 250
170 15 54 13 69 -12 86 -25 17 -22 17 -123 5z"/>
<path d="M10313 4682 c-11 -44 4 -122 35 -184 36 -72 110 -170 147 -194 23
-15 29 -15 101 12 89 32 134 66 134 100 0 32 -27 44 -99 44 -33 0 -62 4 -66 9
-3 5 2 25 11 45 22 45 10 61 -51 70 -45 7 -64 20 -45 31 17 10 11 41 -11 61
-14 12 -42 20 -85 24 -62 5 -65 4 -71 -18z"/>
<path d="M9784 4596 c-135 -69 -267 -159 -272 -187 -4 -24 26 -31 56 -15 45
24 123 46 199 56 73 9 138 35 162 63 15 19 11 139 -5 144 -7 2 -70 -25 -140
-61z"/>
<path d="M4080 3649 c-89 -13 -147 -43 -214 -112 -78 -80 -158 -212 -159 -263
-1 -45 10 -55 182 -165 113 -73 231 -175 231 -200 0 -15 -46 13 -160 96 -114
84 -258 162 -282 152 -9 -3 -47 -66 -86 -139 -66 -127 -177 -312 -264 -441
-48 -71 -47 -90 7 -97 71 -9 399 -187 585 -318 87 -61 202 -173 255 -247 96
-134 144 -267 165 -450 16 -137 45 -244 92 -345 55 -115 114 -171 256 -243
135 -70 295 -174 393 -258 41 -35 178 -165 304 -289 127 -124 248 -237 271
-252 63 -44 132 -52 411 -53 138 0 254 3 258 6 8 9 -23 128 -41 156 -20 32
-18 39 16 53 32 13 55 5 30 -10 -12 -8 -11 -13 7 -32 11 -13 24 -39 27 -58 4
-19 15 -51 24 -70 15 -31 22 -35 57 -36 22 0 52 -3 68 -7 36 -10 67 8 67 37 0
13 -14 58 -31 100 -25 62 -28 80 -19 91 14 17 80 21 80 5 0 -5 -10 -10 -22
-10 l-23 -1 23 -18 c12 -11 22 -26 22 -35 0 -22 47 -127 67 -148 20 -22 100
-25 128 -4 44 32 10 131 -72 207 -98 92 -204 135 -476 193 -346 74 -392 98
-633 340 -356 358 -539 659 -633 1044 -45 184 -47 215 -20 329 21 86 24 122
24 293 0 182 -2 203 -29 305 -74 287 -223 546 -443 772 -89 90 -131 112 -242
124 -98 10 -124 10 -201 -2z"/>
</g>
</svg>
