<?xml version="1.0" standalone="no"?>
<!DOCTYPE svg PUBLIC "-//W3C//DTD SVG 20010904//EN"
 "http://www.w3.org/TR/2001/REC-SVG-20010904/DTD/svg10.dtd">
<svg version="1.0" xmlns="http://www.w3.org/2000/svg" viewBox="0 0 500 520" preserveAspectRatio="xMidYMid meet">
<metadata>
Created by potrace 1.15, written by Peter Selinger 2001-2017
</metadata>
<g transform="translate(27,409) scale(0.035,-0.035)"
fill="#000000" stroke="none">
<path d="M11750 8544 c-306 -25 -514 -70 -650 -139 -187 -95 -576 -431 -752
-650 l-56 -70 14 -90 c34 -222 34 -230 10 -419 l-22 -178 56 6 c30 4 71 9 91
12 l37 6 7 -83 c22 -269 52 -402 146 -642 83 -213 120 -323 144 -433 10 -43
21 -92 24 -108 28 -122 292 -93 616 68 473 233 875 643 1120 1140 121 246 192
470 237 746 34 215 30 640 -8 772 -6 21 -24 25 -224 43 -154 15 -690 28 -790
19z"/>
<path d="M9360 8364 c-167 -19 -266 -49 -344 -104 l-55 -39 -45 25 c-104 58
-387 108 -611 107 -163 0 -260 -19 -411 -78 -162 -65 -419 -215 -529 -310
l-30 -26 75 7 c41 3 121 1 178 -6 261 -29 440 -114 599 -284 132 -142 213
-364 245 -678 l12 -117 60 34 c121 67 247 108 388 125 248 30 527 -67 631
-219 l16 -24 65 60 c130 119 243 156 456 151 l134 -3 29 145 c25 130 28 160
24 290 -6 167 -30 307 -82 466 -42 128 -63 245 -67 376 -2 54 -4 98 -5 98 -1
0 -22 -13 -45 -30 -90 -62 -251 -76 -363 -32 -27 11 -73 29 -100 40 -52 21
-161 33 -225 26z"/>
<path d="M6223 8256 c-246 -47 -410 -148 -568 -350 -76 -98 -148 -167 -201
-194 -77 -38 -170 -65 -247 -70 -68 -4 -77 -7 -70 -21 43 -88 -69 -322 -214
-448 -113 -97 -171 -159 -222 -238 -69 -106 -146 -266 -176 -371 -35 -118 -44
-297 -21 -436 25 -155 93 -352 119 -346 8 2 93 55 190 118 l177 115 -8 35
c-13 64 -6 153 16 196 64 126 236 194 486 194 182 0 263 -36 312 -137 15 -32
29 -59 30 -61 1 -2 24 8 51 22 27 13 87 32 133 40 46 9 84 17 85 19 1 1 7 27
14 59 36 169 161 294 329 329 111 23 299 2 474 -53 l67 -21 53 35 c152 101
310 151 478 151 224 1 438 -76 504 -182 23 -36 26 -38 122 -54 55 -10 105 -17
112 -17 17 0 67 107 88 190 27 101 22 279 -10 402 -54 209 -167 411 -296 531
-173 160 -417 214 -658 147 l-73 -20 -52 56 c-29 31 -56 63 -60 70 -4 8 -51
53 -104 100 -125 111 -200 149 -383 194 -111 28 -370 36 -477 16z"/>
<path d="M1795 7288 c-4 -111 -10 -220 -14 -242 l-6 -38 -115 -38 c-141 -45
-200 -74 -309 -153 l-84 -61 -88 95 -87 94 31 -128 32 -129 -111 -106 c-61
-59 -139 -142 -174 -184 -36 -43 -68 -78 -71 -78 -4 0 -95 18 -203 40 -107 22
-200 40 -206 40 -6 0 36 -41 92 -91 57 -50 111 -99 121 -109 18 -16 17 -20
-21 -111 -21 -52 -51 -126 -66 -166 -29 -77 -88 -174 -127 -210 -19 -17 -57
-27 -179 -47 -85 -15 -166 -29 -180 -32 -19 -4 24 -23 178 -78 143 -50 207
-77 215 -91 7 -14 10 -112 8 -315 -1 -165 3 -352 10 -425 6 -71 12 -141 13
-155 1 -23 -5 -26 -106 -50 -59 -14 -110 -28 -113 -31 -3 -3 45 -16 106 -30
60 -13 114 -26 119 -29 5 -3 41 -123 80 -265 39 -143 85 -311 102 -373 l31
-114 124 124 c68 67 129 131 134 140 7 13 0 29 -30 69 -52 69 -96 160 -125
263 -53 182 -74 444 -38 484 9 11 82 65 161 121 79 56 139 101 134 101 -5 0
-80 -22 -167 -50 -88 -27 -163 -47 -166 -45 -15 9 -32 329 -28 511 5 169 8
198 31 269 31 95 82 184 140 243 23 23 44 42 47 42 3 0 79 -38 168 -85 89 -47
164 -85 167 -85 3 0 -39 59 -95 131 -55 72 -100 136 -100 143 0 6 21 49 46 95
128 239 240 353 441 449 l77 36 154 -160 c85 -87 152 -152 150 -144 -3 8 -33
99 -69 202 l-64 186 20 22 c50 55 180 94 375 111 113 10 139 9 205 -6 103 -23
248 -97 374 -192 57 -43 110 -82 118 -88 9 -7 30 7 79 55 59 59 144 180 144
207 0 6 -61 45 -135 88 -74 42 -137 80 -139 84 -2 3 19 74 45 156 66 204 99
308 95 304 -2 -2 -63 -94 -136 -204 -73 -110 -133 -201 -135 -203 -1 -1 -83 9
-181 23 -206 30 -297 27 -510 -20 -20 -4 -27 13 -94 208 -40 116 -76 216 -80
220 -4 5 -11 -83 -15 -195z"/>
<path d="M4280 7464 c-195 -38 -424 -215 -537 -416 l-38 -68 -45 7 c-136 23
-274 -23 -430 -142 -102 -78 -152 -127 -215 -210 -128 -170 -413 -390 -520
-403 -25 -2 -45 -6 -45 -8 0 -2 25 -42 56 -89 77 -118 183 -326 239 -469 97
-248 148 -513 146 -756 -3 -387 51 -585 196 -720 35 -33 68 -60 74 -60 6 0 42
21 80 48 l70 47 -5 40 c-31 232 -32 437 -1 610 83 472 390 793 829 870 93 16
279 19 358 6 l48 -8 -21 31 c-36 55 -88 171 -111 252 -34 119 -32 311 5 451
73 277 214 520 424 731 51 51 93 95 93 98 0 12 -212 105 -295 129 -70 21 -116
28 -210 30 -66 2 -131 1 -145 -1z"/>
<path d="M8910 6918 c-287 -21 -505 -147 -575 -332 l-16 -41 63 -65 c121 -124
173 -266 172 -470 0 -100 -5 -138 -22 -189 l-21 -64 23 -31 c37 -48 53 -87 71
-162 22 -95 32 -107 101 -122 254 -58 614 -361 745 -627 54 -112 69 -178 69
-315 0 -229 -57 -340 -212 -413 l-68 -32 6 -65 c19 -193 0 -309 -73 -454 -19
-37 -32 -70 -30 -72 12 -13 138 -24 262 -24 307 0 528 89 711 283 196 209 300
473 293 747 l-3 115 76 115 c250 378 325 681 249 1010 -45 193 -93 338 -177
540 -78 189 -116 317 -153 519 -12 63 -24 118 -28 122 -5 4 -85 13 -178 19
-195 13 -321 3 -389 -32 -59 -30 -156 -109 -213 -175 l-49 -56 -23 36 c-35 57
-135 143 -205 176 -113 55 -233 72 -406 59z"/>
<path d="M7359 6704 c-126 -22 -229 -70 -322 -146 l-48 -40 -80 26 c-190 63
-364 76 -474 35 -114 -42 -264 -224 -314 -381 l-12 -37 -82 6 c-137 9 -274
-35 -348 -114 -42 -43 -103 -137 -126 -190 -52 -125 -25 -318 73 -532 l35 -75
-18 -80 c-12 -54 -18 -125 -18 -212 0 -130 0 -130 37 -205 42 -84 109 -176
193 -263 50 -52 59 -68 75 -132 35 -137 106 -247 218 -340 78 -65 220 -139
249 -130 10 3 40 28 67 55 l47 48 -55 85 c-189 295 -354 642 -431 907 -43 149
-58 251 -57 381 0 186 37 278 178 455 223 278 523 526 713 590 210 71 475 91
671 50 219 -47 401 -159 516 -322 145 -201 170 -436 78 -713 -46 -139 -117
-271 -184 -343 -67 -73 -244 -215 -625 -502 -159 -120 -321 -245 -360 -276
-82 -67 -431 -416 -424 -423 12 -12 325 -23 444 -15 165 10 348 43 526 94 90
26 285 131 303 163 21 38 139 151 258 248 150 123 201 178 239 259 23 48 29
74 29 127 0 37 -4 78 -10 92 -9 23 -6 27 23 39 41 18 109 92 140 154 14 26 37
86 53 133 25 76 28 100 28 220 1 129 0 138 -28 194 -16 32 -47 77 -69 99 l-39
39 21 72 c68 234 41 422 -81 552 -97 103 -237 154 -383 141 l-61 -6 -13 47
c-37 141 -283 215 -552 166z"/>
<path d="M7285 6403 c-305 -15 -551 -122 -768 -335 -132 -130 -321 -360 -361
-440 -53 -105 -69 -194 -64 -356 3 -79 12 -168 22 -209 18 -73 36 -97 36 -45
0 95 69 353 126 470 39 80 59 107 147 195 278 280 643 466 922 470 84 2 95 0
159 -32 157 -77 302 -278 421 -585 24 -61 49 -130 56 -154 7 -23 13 -41 15
-39 8 8 54 313 54 360 0 113 -46 269 -115 392 -48 87 -151 190 -232 233 -106
56 -257 83 -418 75z"/>
<path d="M5313 6345 c-74 -20 -122 -47 -164 -92 -61 -63 -73 -97 -76 -202 l-2
-94 -105 -66 c-142 -89 -249 -175 -353 -285 -100 -105 -133 -159 -163 -270
-31 -111 -26 -259 10 -332 l26 -51 -38 -49 c-48 -62 -104 -173 -123 -244 -22
-81 -19 -230 5 -318 45 -163 134 -302 221 -346 29 -14 64 -26 78 -26 l25 0
-33 -34 c-38 -39 -61 -108 -61 -183 0 -65 18 -110 71 -180 34 -46 38 -56 28
-75 -7 -14 -9 -45 -5 -87 6 -70 37 -142 86 -201 l29 -35 1 31 c0 79 193 276
402 412 48 31 87 59 87 62 1 3 -26 37 -60 75 -90 105 -212 292 -284 435 -95
190 -145 344 -222 688 -19 86 -26 147 -27 232 -1 103 2 124 28 195 92 258 289
503 568 708 162 119 344 207 426 207 l25 0 -23 25 c-89 94 -244 135 -377 100z"/>
<path d="M11992 6124 l-132 -115 34 -42 c103 -127 220 -346 275 -512 73 -227
97 -532 50 -647 l-11 -28 -112 0 -111 -1 76 -42 c42 -23 83 -48 91 -55 23 -19
41 -149 36 -259 -5 -92 -9 -107 -61 -228 -30 -71 -60 -149 -67 -172 -6 -24
-12 -43 -14 -43 -2 0 -54 11 -116 25 -62 14 -114 24 -117 21 -2 -2 44 -66 103
-142 l106 -139 -4 -60 c-7 -81 -51 -166 -130 -251 -80 -85 -254 -244 -268
-244 -6 0 -58 43 -116 96 -58 53 -107 95 -108 93 -2 -2 7 -71 21 -153 l24
-149 -28 -29 c-38 -40 -139 -87 -310 -144 -141 -48 -143 -49 -149 -82 -17 -91
51 -272 103 -272 8 0 60 23 116 52 l101 52 88 -48 c48 -26 88 -46 88 -44 0 2
-7 38 -15 81 -20 103 -19 107 8 107 30 0 152 59 224 108 32 22 102 81 155 131
l98 91 92 -65 c51 -35 93 -63 95 -62 1 1 -16 54 -38 116 l-41 114 30 24 c45
35 153 168 202 248 23 39 43 71 45 73 1 1 51 -14 111 -33 60 -19 112 -35 117
-35 4 0 -38 68 -93 150 l-101 151 67 152 c65 146 68 155 71 242 l2 90 95 35
c52 20 97 38 100 41 3 3 -38 16 -90 29 -86 21 -95 26 -90 44 2 12 16 59 30
105 41 131 48 201 41 366 l-6 150 118 85 118 85 -125 9 c-69 4 -126 9 -127 10
-2 1 -7 55 -13 120 -15 168 -34 251 -91 389 -28 67 -56 134 -62 148 -10 24 -3
35 81 145 50 65 89 120 87 122 -2 2 -60 -14 -129 -36 l-125 -39 -64 76 c-108
127 -82 127 -235 -5z"/>
<path d="M5497 6061 c-228 -115 -401 -263 -522 -446 -128 -194 -173 -303 -195
-473 -27 -209 25 -417 187 -754 42 -87 78 -156 80 -155 1 2 14 69 27 149 68
398 180 655 379 865 l73 78 -24 43 c-36 64 -52 134 -59 257 -9 165 18 262 111
403 29 45 51 82 47 82 -3 0 -50 -22 -104 -49z"/>
<path d="M7242 6001 c95 -41 188 -110 231 -173 71 -104 61 -167 -45 -272 l-71
-69 62 34 c80 43 174 128 208 187 38 65 39 143 1 199 -50 75 -191 123 -363
123 l-90 -1 67 -28z"/>
<path d="M6915 5957 c-228 -92 -281 -156 -279 -339 0 -54 3 -100 6 -103 3 -4
48 -15 99 -26 105 -22 320 -36 395 -24 l49 7 -90 30 c-162 52 -210 104 -209
223 1 84 31 159 89 224 21 22 33 41 29 41 -5 0 -45 -15 -89 -33z"/>
<path d="M7759 5644 c-103 -108 -350 -227 -530 -255 -154 -24 -439 6 -687 72
-86 22 -117 27 -127 19 -22 -18 -101 -150 -145 -241 -48 -102 -67 -194 -76
-371 l-6 -133 181 -325 c99 -179 184 -326 189 -328 4 -1 16 12 26 29 36 61
165 206 242 274 87 76 230 171 427 286 210 121 447 311 586 469 117 133 114
99 36 328 -38 108 -71 200 -75 205 -3 4 -22 -9 -41 -29z"/>
<path d="M4165 5649 c-154 -20 -299 -74 -411 -155 -202 -144 -327 -438 -353
-832 -9 -121 0 -357 15 -438 6 -31 3 -33 -77 -80 -46 -27 -113 -78 -149 -114
-72 -71 -82 -89 -201 -364 -78 -181 -115 -247 -229 -406 -45 -62 -79 -118 -76
-125 14 -38 176 -236 266 -325 83 -84 121 -114 185 -147 91 -47 277 -116 441
-164 l111 -32 17 -47 c40 -111 157 -244 276 -314 166 -98 378 -146 639 -146
347 0 674 87 823 220 l42 37 -75 36 c-103 49 -221 128 -280 187 -50 50 -130
167 -190 277 -19 36 -41 63 -50 63 -29 0 -107 -61 -188 -146 -44 -46 -82 -84
-84 -84 -11 0 -27 96 -27 163 0 130 51 282 121 362 17 19 26 35 20 35 -6 0
-43 30 -82 68 -81 75 -119 143 -119 210 0 36 -5 47 -34 73 -48 42 -70 111 -70
224 0 77 4 98 28 150 l27 60 -33 25 c-91 68 -174 177 -210 278 -26 73 -35 253
-18 360 14 90 51 204 92 285 l29 58 -22 62 c-30 86 -37 248 -15 349 25 113 76
210 145 278 l59 57 -52 7 c-68 8 -205 6 -291 -5z"/>
<path d="M8666 5312 c13 -31 16 -158 5 -213 -26 -123 -96 -228 -183 -274 l-53
-28 -2 -60 c-1 -49 -10 -78 -44 -146 -37 -76 -57 -101 -178 -221 -75 -74 -164
-157 -198 -185 -34 -27 -61 -51 -59 -52 4 -5 227 88 350 146 199 93 311 167
416 271 155 155 380 450 380 498 0 19 -17 43 -63 87 -95 93 -231 167 -346 189
-29 5 -32 4 -25 -12z"/>
<path d="M5516 5170 c-76 -95 -153 -214 -201 -314 -69 -142 -145 -419 -177
-640 l-12 -89 98 -191 c55 -105 100 -192 102 -194 1 -2 13 3 26 12 96 62 555
153 788 156 l45 1 -45 24 c-97 50 -171 161 -264 401 -25 63 -32 72 -64 84 -51
18 -134 106 -172 179 -61 123 -74 192 -74 424 -1 114 -1 207 -1 207 0 0 -22
-27 -49 -60z"/>
<path d="M9159 4964 c-78 -163 -286 -409 -468 -553 -239 -191 -516 -326 -896
-441 -397 -119 -632 -150 -1310 -170 -560 -17 -733 -31 -890 -72 -337 -88
-615 -329 -797 -691 -46 -93 -122 -297 -113 -305 2 -3 21 9 42 26 66 52 209
128 293 156 69 23 102 27 228 30 158 4 247 23 343 72 59 29 125 86 144 125
l14 27 38 -36 c132 -124 311 -182 560 -182 342 0 623 101 790 285 l58 63 55
-28 c146 -74 349 -110 501 -91 109 14 231 54 325 106 88 49 194 154 220 218
19 47 19 47 59 41 118 -17 412 101 516 208 52 54 99 152 112 235 l11 68 70 17
c153 38 283 123 325 213 44 93 21 312 -49 476 -27 64 -91 170 -138 228 l-19
24 -24 -49z"/>
<path d="M2661 4964 c-315 -83 -724 -302 -1102 -590 -538 -410 -876 -809
-1152 -1359 -81 -162 -185 -418 -237 -580 -97 -306 -188 -756 -160 -790 29
-35 259 -166 426 -242 382 -176 839 -273 1279 -273 608 0 1077 154 1396 457
158 151 285 347 357 553 31 90 65 237 57 250 -2 4 -28 10 -56 14 -77 10 -254
71 -339 117 -217 117 -506 407 -614 617 l-17 33 86 80 c148 140 220 251 275
424 38 117 72 187 134 278 l46 67 -61 92 c-81 124 -164 290 -191 385 -21 70
-23 100 -23 286 0 114 -2 207 -5 207 -3 -1 -47 -12 -99 -26z"/>
<path d="M10514 4533 c24 -146 15 -275 -30 -430 -58 -201 -191 -393 -385 -559
l-47 -40 47 -94 c82 -167 120 -354 128 -632 8 -268 -20 -406 -113 -560 -44
-72 -155 -192 -234 -253 -76 -58 -220 -140 -296 -167 l-64 -23 0 -43 c0 -184
-399 -526 -701 -600 l-73 -18 114 -48 c194 -82 370 -136 550 -167 121 -22 376
-16 490 10 205 46 336 120 449 252 92 109 125 167 188 331 30 78 70 168 88
199 54 88 217 242 357 337 67 46 202 109 249 117 l40 7 -49 51 c-113 120 -231
301 -288 442 -48 119 -64 213 -64 374 0 137 2 155 61 466 5 28 12 142 15 255
5 183 4 216 -14 304 -36 173 -131 335 -250 429 -54 42 -148 97 -167 97 -4 0
-5 -17 -1 -37z"/>
<path d="M9144 3898 c-71 -139 -229 -305 -339 -358 -59 -28 -350 -110 -392
-110 -8 0 -25 -12 -36 -27 -121 -156 -271 -258 -442 -302 -224 -56 -465 -52
-657 13 l-72 24 -52 -47 c-179 -159 -513 -261 -854 -261 -206 0 -413 55 -508
134 -35 30 -42 32 -42 11 0 -24 -72 -97 -116 -116 -26 -12 -88 -22 -175 -29
-73 -6 -145 -13 -159 -16 -37 -9 -174 -56 -182 -63 -13 -11 121 -180 237 -300
124 -127 244 -222 355 -280 86 -45 469 -180 610 -216 128 -32 277 -53 440 -61
155 -8 485 10 608 32 373 67 773 336 1203 807 206 226 350 478 487 853 42 115
113 344 106 344 -2 0 -11 -15 -20 -32z"/>
<path d="M9937 3406 c-22 -33 -106 -71 -199 -90 -179 -37 -513 -30 -600 13
l-38 18 -36 -64 c-97 -174 -343 -521 -516 -728 -114 -137 -288 -315 -378 -388
-279 -225 -578 -349 -935 -388 -314 -34 -997 40 -1309 142 -49 16 -90 28 -92
26 -7 -6 108 -223 161 -304 80 -119 236 -274 342 -336 151 -88 251 -117 511
-147 382 -44 565 -110 722 -257 54 -51 88 -93 114 -142 l36 -70 150 113 c178
133 372 252 490 301 47 19 178 61 290 94 113 33 224 66 247 75 86 31 250 118
315 167 111 83 201 221 231 356 l13 56 70 23 c108 36 262 118 346 184 132 106
222 238 264 390 23 83 26 397 5 505 -28 142 -116 373 -175 456 -13 19 -14 19
-29 -5z"/>
<path d="M3634 2255 c-139 -387 -365 -712 -620 -893 -213 -152 -537 -266 -917
-322 -120 -18 -363 -40 -444 -40 -28 0 -42 -11 -103 -82 -90 -105 -204 -274
-242 -357 -39 -86 -70 -211 -66 -263 l3 -43 110 -32 c667 -197 1334 -269 1732
-187 182 37 380 125 543 242 123 87 316 279 414 411 101 136 168 250 162 276
-2 11 -23 72 -46 135 -69 189 -119 360 -126 424 -9 84 11 204 52 312 19 51 34
95 34 98 0 3 -11 6 -24 6 -28 0 -160 43 -231 76 -97 44 -164 111 -201 202 -19
46 -24 53 -30 37z"/>
<path d="M5466 2104 c-255 -193 -606 -296 -902 -264 -109 11 -240 40 -301 65
-32 14 -33 13 -48 -15 -33 -64 -67 -207 -72 -306 -7 -116 6 -202 46 -318 44
-126 83 -193 171 -296 182 -211 287 -420 315 -628 5 -34 11 -52 19 -48 107 48
304 122 386 145 237 67 298 72 715 57 194 -7 248 -6 341 8 285 42 509 140 769
335 107 81 225 181 225 191 0 4 -33 3 -72 -2 -140 -15 -369 23 -528 87 -36 15
-108 49 -161 77 -305 159 -558 456 -669 786 -31 93 -36 99 -120 142 l-55 28
-59 -44z"/>
</g>
</svg>
