<?xml version="1.0" standalone="no"?>
<!DOCTYPE svg PUBLIC "-//W3C//DTD SVG 20010904//EN"
 "http://www.w3.org/TR/2001/REC-SVG-20010904/DTD/svg10.dtd">
<svg version="1.0" xmlns="http://www.w3.org/2000/svg" viewBox="0 0 500 520" preserveAspectRatio="xMidYMid meet">
<metadata>
Created by potrace 1.15, written by Peter Selinger 2001-2017
</metadata>
<g transform="translate(88,483) scale(0.035,-0.035)"
fill="#000000" stroke="none">
<path d="M2930 12794 c-8 -2 -103 -17 -210 -34 -282 -45 -521 -89 -553 -102
-36 -14 -67 -54 -67 -85 0 -45 142 -382 179 -425 33 -38 36 -40 85 -36 50 4
669 113 715 126 66 19 85 113 52 257 -64 281 -92 324 -201 299z"/>
<path d="M3509 12747 c-9 -7 -21 -22 -27 -33 -6 -12 -55 -80 -108 -150 -106
-141 -124 -174 -124 -232 0 -47 -5 -42 285 -278 121 -98 241 -198 268 -221 55
-49 80 -53 144 -22 70 34 211 218 220 288 5 35 -1 43 -147 211 -283 325 -362
412 -394 431 -35 21 -93 24 -117 6z"/>
<path d="M1756 12349 c-23 -18 -351 -450 -479 -630 -57 -81 -80 -133 -71 -162
7 -24 43 -67 56 -67 4 0 84 -36 176 -80 174 -82 251 -107 295 -97 18 5 52 48
128 159 208 310 273 404 302 441 35 45 38 92 8 140 -24 40 -231 242 -292 287
-49 35 -86 38 -123 9z"/>
<path d="M4240 11891 c-129 -42 -205 -162 -257 -402 -26 -125 -24 -379 5 -516
85 -393 305 -674 660 -840 94 -44 128 -52 75 -18 -49 32 -174 158 -219 222
-129 179 -164 390 -93 553 61 139 187 171 272 70 l25 -30 16 48 c57 172 37
423 -49 608 -89 194 -211 302 -350 310 -33 2 -71 0 -85 -5z"/>
<path d="M1156 11240 c-63 -12 -82 -43 -90 -142 -14 -178 -36 -567 -36 -640 0
-72 2 -80 29 -110 l29 -32 198 2 c209 3 270 13 311 52 17 16 22 36 27 112 5
84 26 557 28 636 2 63 -71 108 -188 117 -142 10 -270 12 -308 5z"/>
<path d="M1387 10266 c-82 -34 -264 -136 -298 -168 -19 -17 -29 -36 -29 -54 0
-28 151 -503 217 -684 62 -171 103 -185 255 -87 54 34 162 102 240 150 147 91
208 148 208 192 0 14 -83 149 -200 325 -110 166 -200 305 -200 310 0 17 -58
40 -97 40 -21 0 -64 -11 -96 -24z"/>
<path d="M5559 9771 c-84 -146 -86 -150 -72 -182 7 -17 16 -30 18 -27 8 8 145
351 142 354 -2 2 -41 -64 -88 -145z"/>
<path d="M5195 9585 c-99 -7 -265 -19 -370 -25 -104 -7 -213 -15 -242 -19
l-52 -6 112 -81 112 -81 355 81 c195 44 357 81 358 82 2 1 1 16 -3 33 -8 36 8
35 -270 16z"/>
<path d="M2269 9576 c-52 -18 -132 -74 -244 -171 -210 -183 -334 -268 -492
-340 -96 -44 -101 -56 -59 -138 18 -36 47 -112 65 -169 138 -441 145 -456 205
-478 26 -10 39 -7 95 22 147 74 1145 764 1164 805 21 47 -57 113 -291 248 -75
43 -189 110 -252 148 -143 86 -148 88 -191 73z"/>
<path d="M4496 9338 c-88 -389 -116 -514 -116 -528 1 -9 58 -49 138 -98 75
-45 152 -92 170 -103 l33 -21 -2 283 c-1 156 -4 319 -8 361 l-6 76 -80 63
c-44 34 -85 66 -91 71 -9 6 -19 -24 -38 -104z"/>
<path d="M3195 8985 c-87 -47 -166 -106 -490 -365 -318 -255 -497 -381 -672
-471 -155 -80 -156 -83 -90 -186 24 -37 81 -135 127 -218 174 -314 197 -345
263 -345 13 0 78 32 143 71 105 63 595 387 804 532 598 414 580 401 580 432 0
29 -49 91 -184 232 -101 106 -301 289 -356 326 -34 24 -69 21 -125 -8z"/>
<path d="M4000 8688 c-85 -4 -158 -12 -162 -16 -7 -7 271 -409 295 -425 8 -6
95 37 252 124 132 72 246 137 252 143 10 9 -17 32 -112 99 l-125 87 -123 -1
c-67 -1 -192 -6 -277 -11z"/>
<path d="M3922 8200 c-79 -37 -205 -122 -505 -338 -471 -342 -726 -501 -910
-571 -14 -6 -34 -22 -43 -36 l-17 -26 188 -280 c186 -277 213 -309 264 -309
27 0 163 73 396 213 362 218 1131 708 1153 735 6 9 12 25 12 35 0 21 -156 277
-245 403 -90 125 -173 204 -217 204 -7 0 -41 -13 -76 -30z"/>
<path d="M6907 8112 c-111 -112 -117 -119 -111 -150 4 -17 10 -30 14 -27 14 9
229 295 222 295 -4 0 -60 -53 -125 -118z"/>
<path d="M5892 8128 c19 -24 58 -73 87 -109 l52 -66 112 -7 c62 -3 209 -10
327 -16 118 -5 234 -12 258 -15 l42 -5 0 35 c0 40 12 35 -180 74 -191 39 -349
72 -550 115 -91 20 -169 36 -174 36 -4 0 7 -19 26 -42z"/>
<path d="M5670 7796 c-84 -156 -153 -287 -153 -291 0 -4 61 -72 134 -152 112
-122 135 -142 141 -127 18 43 178 660 174 671 -8 19 -129 183 -136 183 -4 0
-76 -128 -160 -284z"/>
<path d="M743 7274 c-273 -245 -340 -311 -333 -323 5 -9 13 -22 18 -29 7 -10
81 34 303 178 162 106 300 195 307 199 13 7 57 251 50 273 -2 5 -157 -129
-345 -298z"/>
<path d="M1159 7529 c0 -2 -6 -57 -13 -121 l-12 -117 252 -252 252 -252 27
119 c15 66 35 154 45 197 l18 78 -37 23 c-20 13 -137 85 -261 161 -124 76
-235 145 -247 153 -13 8 -23 13 -24 11z"/>
<path d="M4950 7525 c0 -9 173 -490 179 -497 3 -4 76 10 161 31 85 21 212 51
283 67 70 16 127 31 127 34 0 3 -44 59 -97 124 l-98 120 -70 18 c-78 20 -402
93 -452 102 -18 3 -33 3 -33 1z"/>
<path d="M2102 7402 c-48 -44 -140 -130 -204 -193 l-117 -114 -24 -152 c-13
-84 -22 -153 -19 -153 12 0 548 163 554 168 8 9 -84 522 -95 522 -4 0 -47 -35
-95 -78z"/>
<path d="M4533 7411 c-74 -25 -205 -106 -593 -365 -464 -311 -659 -428 -846
-506 -54 -23 -108 -50 -118 -60 -18 -18 -18 -20 22 -102 22 -46 57 -130 77
-188 20 -58 48 -124 61 -147 28 -48 72 -68 119 -54 111 32 1698 822 1721 856
15 22 11 31 -86 202 -110 192 -169 280 -222 330 -50 48 -75 54 -135 34z"/>
<path d="M55 7039 c36 -16 336 -139 340 -139 2 0 -1 14 -7 31 -12 36 -13 36
-195 83 -142 36 -175 42 -138 25z"/>
<path d="M7337 6864 c-100 -127 -107 -138 -101 -170 3 -19 9 -34 13 -34 3 0
35 51 71 112 102 175 131 228 128 228 -2 -1 -51 -62 -111 -136z"/>
<path d="M6290 6782 c0 -4 42 -49 94 -101 l93 -93 354 26 c195 14 361 26 369
26 12 0 15 8 12 35 -3 26 -9 35 -22 35 -10 0 -121 9 -247 20 -125 11 -309 27
-408 35 -99 9 -195 17 -212 20 -18 2 -33 1 -33 -3z"/>
<path d="M6194 6528 c-37 -95 -92 -234 -121 -308 l-53 -134 22 -23 c35 -34
283 -242 286 -239 1 2 25 159 52 351 l49 347 -81 89 c-45 49 -83 89 -84 89 -1
0 -32 -78 -70 -172z"/>
<path d="M4920 6601 c-63 -26 -272 -126 -465 -220 -657 -325 -860 -414 -1129
-498 -80 -25 -84 -35 -53 -114 14 -35 37 -113 52 -174 38 -160 64 -233 88
-250 50 -35 96 -22 687 200 699 263 1168 445 1209 472 18 11 22 21 17 41 -29
141 -99 419 -117 467 -12 33 -37 75 -55 93 -46 46 -90 43 -234 -17z"/>
<path d="M2532 6618 c-5 -13 -58 -126 -116 -252 l-106 -230 31 -142 c18 -79
35 -148 39 -155 5 -8 81 47 229 166 122 98 224 181 227 186 5 9 -274 449 -285
449 -4 0 -13 -10 -19 -22z"/>
<path d="M1282 5902 l-202 -417 22 -17 c13 -10 26 -17 30 -15 13 4 418 590
418 604 0 14 -59 256 -64 260 -1 1 -93 -185 -204 -415z"/>
<path d="M1572 6278 c3 -7 18 -56 33 -108 16 -52 33 -100 39 -106 14 -15 637
-276 643 -270 3 2 -10 92 -27 198 l-32 194 -317 52 c-174 29 -322 52 -330 52
-7 0 -11 -6 -9 -12z"/>
<path d="M5460 6035 c0 -6 230 -467 236 -474 4 -4 491 173 532 194 23 11 20
15 -92 120 l-116 108 -203 22 c-260 29 -357 37 -357 30z"/>
<path d="M5282 5829 c-67 -13 -308 -96 -707 -244 -569 -210 -888 -319 -1070
-365 -22 -5 -49 -16 -59 -23 -17 -13 -17 -16 -3 -44 9 -17 26 -70 38 -119 24
-96 51 -134 93 -134 14 0 101 23 193 51 271 82 1698 558 1718 573 16 12 17 18
8 38 -6 14 -17 60 -23 103 -25 166 -53 191 -188 164z"/>
<path d="M7655 5648 c-54 -68 -102 -128 -107 -134 -9 -12 0 -74 11 -74 4 0 39
55 79 123 40 67 83 141 98 165 14 23 23 42 21 42 -3 0 -49 -55 -102 -122z"/>
<path d="M6692 5463 l97 -97 333 22 c428 29 405 26 400 63 -3 20 -11 31 -26
34 -24 5 -850 75 -881 75 -15 0 6 -25 77 -97z"/>
<path d="M887 5455 c-87 -12 -161 -26 -164 -29 -4 -3 80 -6 185 -6 106 0 192
4 192 8 0 9 -43 53 -51 51 -2 0 -75 -11 -162 -24z"/>
<path d="M6455 5178 c-65 -166 -118 -307 -119 -313 -1 -13 294 -268 302 -261
2 3 26 159 52 347 38 269 46 347 37 359 -7 10 -44 51 -83 93 l-71 76 -118
-301z"/>
<path d="M5382 5339 c-40 -11 -205 -64 -365 -118 -707 -238 -811 -273 -958
-320 -86 -27 -222 -66 -303 -86 -80 -21 -154 -43 -162 -50 -15 -10 -15 -14 0
-43 9 -17 23 -64 31 -104 35 -166 48 -172 257 -114 440 123 1744 520 1766 538
7 6 10 18 6 27 -3 9 -17 58 -30 109 -45 180 -82 204 -242 161z"/>
<path d="M3148 5138 c-46 -57 -123 -152 -170 -213 l-85 -110 -6 -162 c-3 -90
-3 -163 1 -163 4 1 124 57 267 125 164 78 259 129 257 137 -10 47 -166 488
-173 488 -4 0 -46 -46 -91 -102z"/>
<path d="M1905 4909 c-121 -149 -253 -310 -293 -359 l-72 -89 22 -25 23 -25
272 242 272 242 1 143 c0 78 -1 142 -2 141 -2 0 -102 -122 -223 -270z"/>
<path d="M2208 5048 c5 -162 2 -155 105 -229 51 -36 177 -128 280 -204 103
-75 190 -135 193 -132 6 6 36 389 31 394 -5 4 -599 253 -606 253 -3 0 -5 -37
-3 -82z"/>
<path d="M5565 4855 c-75 -17 -312 -89 -645 -195 -494 -159 -899 -275 -1071
-310 -100 -20 -100 -19 -31 -156 33 -66 66 -125 74 -131 40 -31 64 -27 516 92
778 206 1344 363 1360 380 10 9 11 18 4 31 -5 11 -12 55 -16 99 -9 105 -21
147 -49 173 -31 29 -70 34 -142 17z"/>
<path d="M5779 4788 c25 -61 227 -446 236 -448 14 -3 545 194 542 201 -1 3
-52 53 -113 112 l-110 106 -233 26 c-129 14 -255 25 -282 25 -46 0 -48 -1 -40
-22z"/>
<path d="M1345 4445 c94 -24 178 -44 188 -44 17 -1 17 0 0 27 -9 15 -18 28
-18 30 -2 3 -305 32 -325 31 -8 -1 62 -21 155 -44z"/>
<path d="M5290 4266 c-166 -45 -457 -174 -447 -199 3 -7 21 -50 40 -97 88
-213 142 -445 211 -915 43 -294 68 -421 84 -437 5 -5 44 21 89 57 126 101 236
237 316 393 123 237 183 545 159 814 -21 235 -70 356 -161 394 -52 22 -191 17
-291 -10z"/>
<path d="M7150 4161 c-158 -6 -165 -7 -162 -26 8 -46 76 -186 109 -225 34 -39
37 -41 77 -35 52 8 111 -11 343 -110 264 -114 452 -175 538 -175 30 0 33 3 40
38 22 117 94 198 246 277 110 57 139 83 139 124 0 58 -61 85 -245 111 -182 25
-669 34 -1085 21z"/>
<path d="M6715 4068 c-85 -73 -409 -326 -725 -565 -204 -155 -235 -182 -238
-208 -5 -43 15 -101 49 -139 l29 -34 33 32 c68 68 253 160 707 351 291 122
508 225 533 253 17 19 16 20 -27 46 -56 33 -103 87 -173 201 -66 107 -81 125
-102 124 -9 0 -47 -27 -86 -61z"/>
<path d="M4465 4034 c-270 -30 -412 -77 -484 -159 -54 -62 -53 -160 4 -332 99
-298 320 -591 571 -759 148 -99 347 -179 493 -199 l54 -7 -6 39 c-9 52 -46
170 -156 493 -131 385 -186 614 -198 828 l-6 102 -121 -1 c-67 -1 -134 -4
-151 -5z"/>
<path d="M3566 3968 c-25 -29 -104 -127 -175 -218 l-130 -165 -1 -163 0 -162
48 24 c26 13 83 40 127 61 231 106 355 170 352 179 -3 6 -42 119 -87 251 -45
132 -84 241 -85 243 -2 2 -23 -21 -49 -50z"/>
<path d="M2204 3592 l-292 -357 20 -27 19 -28 274 243 274 242 0 143 c1 78 0
142 -1 142 -2 -1 -134 -161 -294 -358z"/>
<path d="M2582 3784 c4 -76 11 -121 20 -129 32 -30 551 -405 556 -401 3 4 30
322 32 377 0 9 -19 24 -47 37 -103 47 -548 232 -558 232 -7 0 -8 -38 -3 -116z"/>
<path d="M8552 3856 c-86 -22 -194 -81 -250 -137 -67 -67 -92 -119 -92 -193 0
-96 36 -147 168 -232 102 -67 158 -123 201 -204 46 -85 61 -149 61 -256 0
-301 -200 -599 -514 -765 l-70 -37 59 -7 c126 -16 309 17 467 85 265 114 540
383 658 643 63 139 83 229 84 377 1 154 -17 232 -81 350 -81 149 -253 308
-392 361 -70 27 -222 35 -299 15z"/>
<path d="M8034 3328 c-106 -71 -150 -172 -141 -317 8 -141 70 -273 181 -386
51 -52 184 -151 192 -143 1 2 -9 35 -22 75 -52 156 -54 346 -3 464 20 46 97
129 119 129 5 0 10 4 10 8 0 10 -266 202 -279 202 -5 0 -30 -15 -57 -32z"/>
<path d="M1725 3214 c94 -24 176 -44 183 -44 10 0 9 8 -4 30 -20 32 -21 33
-203 50 -161 16 -158 11 24 -36z"/>
<path d="M3910 2844 c-433 -60 -701 -93 -857 -106 -111 -9 -133 -14 -133 -27
0 -9 15 -53 34 -98 47 -111 59 -178 42 -242 l-13 -51 38 0 c46 0 224 51 434
125 493 175 729 245 833 248 l62 2 0 42 c0 79 -49 154 -99 152 -14 -1 -168
-21 -341 -45z"/>
<path d="M2770 2618 c-320 -280 -745 -698 -861 -848 -107 -138 -130 -199 -89
-240 25 -25 69 -26 151 -1 192 58 309 49 397 -32 l22 -20 25 23 c62 58 150
217 260 470 101 234 152 328 186 346 36 18 44 49 30 114 -12 55 -68 207 -79
214 -4 2 -23 -10 -42 -26z"/>
<path d="M2063 1355 c-82 -18 -142 -45 -219 -101 -152 -108 -216 -259 -218
-514 -1 -147 11 -203 66 -320 34 -70 56 -100 128 -172 75 -74 102 -93 191
-137 208 -101 443 -133 696 -95 282 41 525 157 700 331 41 41 72 77 70 80 -3
2 -36 -5 -74 -16 -185 -54 -410 -69 -564 -37 -247 52 -404 189 -440 384 -13
66 -7 134 21 240 51 194 0 314 -149 356 -68 19 -124 19 -208 1z"/>
<path d="M2618 1259 c-32 -9 -38 -16 -44 -47 -4 -21 -19 -99 -34 -175 l-27
-137 36 7 c105 22 215 -21 318 -123 68 -69 149 -185 179 -258 11 -25 22 -46
26 -46 15 0 38 146 38 247 0 125 -15 195 -65 301 -41 87 -126 176 -200 211
-57 27 -167 37 -227 20z"/>
</g>
</svg>
